<?xml version="1.0" standalone="no"?>
<!DOCTYPE svg PUBLIC "-//W3C//DTD SVG 1.1//EN" "http://www.w3.org/Graphics/SVG/1.1/DTD/svg11.dtd" >
<svg xmlns="http://www.w3.org/2000/svg">
<metadata></metadata>
<defs>
<font id="gt_walsheimregular" horiz-adv-x="1177" >
<font-face units-per-em="2048" ascent="1638" descent="-410" />
<missing-glyph horiz-adv-x="518" />
<glyph unicode="&#xfb01;" horiz-adv-x="1275" d="M43 780v150h201v162q0 69 12 125t31 92.5t47 63t53.5 40t58.5 21.5t55 10t48 2q91 0 139 -25v-151q-53 16 -113 16q-32 0 -53.5 -4.5t-47 -20.5t-39 -54t-13.5 -97v-180h266v-150h-266v-780h-178v780h-201zM856 1280q0 59 39 99t96 40q59 0 99 -40.5t40 -98.5 q0 -57 -40 -96t-99 -39q-57 0 -96 39t-39 96zM903 0v930h178v-930h-178z" />
<glyph unicode="&#xfb02;" horiz-adv-x="1208" d="M43 780v150h201v162q0 69 12 125t31 92.5t47 63t53.5 40t58.5 21.5t55 10t48 2q91 0 139 -25v-151q-53 16 -113 16q-32 0 -53.5 -4.5t-47 -20.5t-39 -54t-13.5 -97v-180h266v-150h-266v-780h-178v780h-201zM870 0v1434h179v-1434h-179z" />
<glyph unicode="&#xfb03;" horiz-adv-x="1869" d="M43 780v150h201v162q0 69 12 125t31 92.5t47 63t53.5 40t58.5 21.5t55 10t48 2q91 0 139 -25v-151q-53 16 -113 16q-32 0 -53.5 -4.5t-47 -20.5t-39 -54t-13.5 -97v-180h266v-150h-266v-780h-178v780h-201zM754 780v150h200v162q0 96 23.5 165.5t55 104.5t78.5 55.5 t78.5 24.5t70.5 4q91 0 139 -25v-151q-53 16 -113 16q-32 0 -53.5 -4.5t-47 -20.5t-39 -54t-13.5 -97v-180h266v-150h-266v-780h-179v780h-200zM1561 1282q0 60 41.5 102.5t101.5 42.5t101.5 -42.5t41.5 -102.5q0 -59 -41.5 -100t-101.5 -41t-101.5 41t-41.5 100zM1616 0 v930h176v-930h-176z" />
<glyph unicode="&#xfb04;" horiz-adv-x="1918" d="M43 780v150h201v162q0 69 12 125t31 92.5t47 63t53.5 40t58.5 21.5t55 10t48 2q91 0 139 -25v-151q-53 16 -113 16q-32 0 -53.5 -4.5t-47 -20.5t-39 -54t-13.5 -97v-180h266v-150h-266v-780h-178v780h-201zM754 780v150h200v162q0 96 23.5 165.5t55 104.5t78.5 55.5 t78.5 24.5t70.5 4q91 0 139 -25v-151q-53 16 -113 16q-32 0 -53.5 -4.5t-47 -20.5t-39 -54t-13.5 -97v-180h266v-150h-266v-780h-179v780h-200zM1581 0v1434h178v-1434h-178z" />
<glyph horiz-adv-x="2048" />
<glyph horiz-adv-x="2048" />
<glyph unicode="&#xd;" horiz-adv-x="2048" />
<glyph unicode=" "  horiz-adv-x="518" />
<glyph unicode="&#x09;" horiz-adv-x="518" />
<glyph unicode="&#xa0;" horiz-adv-x="518" />
<glyph unicode="!" horiz-adv-x="606" d="M154 123q0 62 43 104.5t106 42.5q62 0 106 -43t44 -104q0 -62 -44.5 -107t-105.5 -45q-62 0 -105.5 45t-43.5 107zM207 436v1006h192v-1006h-192z" />
<glyph unicode="&#x22;" horiz-adv-x="724" d="M123 1272v196h168v-196l-39 -318h-88zM434 1272v196h168v-196l-39 -318h-90z" />
<glyph unicode="#" horiz-adv-x="1126" d="M59 428v139h215l41 299h-194v140h215l59 428h148l-60 -428h258l60 428h147l-59 -428h178v-140h-199l-41 -299h179v-139h-199l-59 -428h-146l60 428h-261l-59 -428h-145l59 428h-197zM422 567h258l41 299h-258z" />
<glyph unicode="$" horiz-adv-x="1280" d="M152 457h186q0 -147 88.5 -234.5t232.5 -87.5q128 0 207.5 68.5t79.5 181.5q0 48 -17.5 87.5t-40.5 63t-65 45.5t-70.5 32.5t-78.5 25.5q-55 17 -94 30t-86.5 32t-80.5 38t-69 44t-59.5 53.5t-43 63.5t-29 78t-9.5 93q0 161 97.5 260.5t264.5 126.5v217h166v-217 q165 -25 266.5 -140t102.5 -290h-187q-3 128 -74.5 199t-193.5 71q-113 0 -184.5 -59t-71.5 -160q0 -43 15.5 -78.5t37 -58.5t61 -44.5t70.5 -33.5t82 -28q93 -30 143 -48.5t124.5 -57t113 -79.5t68 -107.5t29.5 -148.5q0 -173 -110 -286.5t-292 -135.5v-215h-166v217 q-184 24 -298.5 153.5t-114.5 328.5z" />
<glyph unicode="%" horiz-adv-x="1884" d="M131 901v277q0 113 80 191.5t207 78.5q130 0 209.5 -79t79.5 -195v-277q0 -112 -80.5 -191t-208.5 -79t-207.5 80t-79.5 194zM276 901q0 -63 40.5 -106t103.5 -43t102 43t39 106v273q0 63 -39 107t-102 44t-103.5 -44t-40.5 -107v-273zM406 -12l894 1542l144 -82 l-897 -1542zM1178 258v277q0 113 79.5 191.5t206.5 78.5q130 0 209.5 -79.5t79.5 -195.5v-276q0 -112 -80.5 -191t-208.5 -79t-207 80t-79 194zM1323 258q0 -63 40 -106t103 -43t102.5 43t39.5 106v272q0 63 -39.5 107.5t-102.5 44.5t-103 -44.5t-40 -107.5v-272z" />
<glyph unicode="&#x26;" horiz-adv-x="1226" d="M96 412q0 122 64 202.5t190 133.5q-223 87 -223 315q0 119 61 209.5t161 137t222 46.5q197 0 322 -119t125 -309h-187q0 120 -67 190t-197 70q-116 0 -184 -57.5t-68 -167.5q0 -103 65 -167.5t208 -64.5h30v-165h-30q-151 0 -228 -73t-77 -185q0 -122 83 -192.5 t207 -70.5q141 0 220 92.5t81 241.5h-167v166h477v-166h-123q-1 -150 -64.5 -265t-172.5 -176t-246 -61q-128 0 -237 52.5t-177 153t-68 229.5z" />
<glyph unicode="'" horiz-adv-x="413" d="M123 1272v196h168v-196l-39 -318h-88z" />
<glyph unicode="(" horiz-adv-x="753" d="M209 -8v1147q0 132 59.5 242.5t172 177.5t255.5 67v-168q-133 0 -217 -92.5t-84 -226.5v-1147q0 -134 84 -227t217 -93v-168q-143 0 -255.5 67t-172 178t-59.5 243z" />
<glyph unicode=")" horiz-adv-x="753" d="M57 -328q133 0 217 93t84 227v1147q0 134 -84 226.5t-217 92.5v168q143 0 256 -67t172.5 -177.5t59.5 -242.5v-1147q0 -132 -59.5 -243t-172.5 -178t-256 -67v168z" />
<glyph unicode="*" horiz-adv-x="937" d="M82 1145l37 110l295 -98l-2 311h118l-4 -311l293 98l37 -110l-297 -94l186 -250l-96 -68l-180 252l-180 -252l-96 68l186 250z" />
<glyph unicode="+" d="M180 504v158h320v331h178v-331h319v-158h-319v-328h-178v328h-320z" />
<glyph unicode="," horiz-adv-x="552" d="M119 131q0 61 41.5 103t107.5 42q76 0 122 -59t46 -168q0 -144 -82.5 -215.5t-224.5 -71.5v88q100 0 147 64q31 44 31 90q-16 -16 -53 -16q-58 0 -96.5 42t-38.5 101z" />
<glyph unicode="-" horiz-adv-x="602" d="M61 504v160h480v-160h-480z" />
<glyph unicode="." horiz-adv-x="522" d="M119 133q0 60 41 101.5t100 41.5q60 0 103 -42t43 -101q0 -60 -43 -101.5t-103 -41.5q-59 0 -100 41t-41 102z" />
<glyph unicode="/" horiz-adv-x="892" d="M10 -76l746 1733l162 -70l-746 -1732z" />
<glyph unicode="0" d="M98 463v508q0 133 59 243t172.5 177t258.5 67q217 0 354 -142t137 -345v-508q0 -131 -60 -242t-173.5 -178.5t-257.5 -67.5q-109 0 -202 39.5t-155.5 106.5t-97.5 155.5t-35 186.5zM285 463q0 -133 84.5 -226.5t218.5 -93.5q135 0 220 93.5t85 226.5v508q0 134 -85 226.5 t-220 92.5t-219 -92.5t-84 -226.5v-508z" />
<glyph unicode="1" d="M268 1047v149q96 0 155.5 12.5t93 43t45 72t11.5 110.5h179v-1434h-193v1047h-291z" />
<glyph unicode="2" d="M162 0q0 134 18 237t48.5 175t83 129t110.5 95.5t143 78.5q39 18 61.5 29.5t59 32.5t58.5 39t49 45t41.5 54.5t25 64t10.5 77.5q0 110 -67 170.5t-180 60.5q-125 0 -200 -73.5t-75 -206.5h-186q0 137 62.5 240t167.5 155.5t235 52.5q190 0 310 -110.5t120 -292.5 q0 -46 -9 -88.5t-21.5 -76t-37 -67.5t-43.5 -57t-53.5 -50.5t-54.5 -42t-59.5 -37.5t-55 -31t-53.5 -28q-127 -66 -188 -119.5t-84 -117t-23 -170.5h682v-168h-895z" />
<glyph unicode="3" d="M96 453h187q0 -140 86.5 -224t222.5 -84q128 0 204 74.5t76 192.5q0 111 -72.5 182.5t-217.5 71.5h-103v165h103q132 0 196 63.5t64 168.5q0 110 -68 167.5t-186 57.5q-131 0 -197.5 -70t-66.5 -190h-187q0 190 123.5 309t321.5 119q191 0 318.5 -107.5t127.5 -283.5 q0 -120 -61 -203.5t-160 -113.5q115 -37 183.5 -126t68.5 -219q0 -188 -136 -307t-337 -119q-135 0 -245.5 55.5t-177.5 165.5t-67 255z" />
<glyph unicode="4" d="M143 461v973h187v-805h348v442h186v-442h215v-168h-215v-461h-186v461h-535z" />
<glyph unicode="5" d="M100 465h187q0 -133 83.5 -226.5t219.5 -93.5t219.5 93.5t83.5 228.5q0 133 -84 224t-221 91q-190 0 -269 -172h-190v824h844v-168h-676v-480q46 83 138 123.5t196 40.5q134 0 238 -66t158 -174t54 -237q0 -136 -60 -248.5t-173 -180t-258 -67.5q-109 0 -202 39.5 t-155.5 106.5t-97.5 155.5t-35 186.5z" />
<glyph unicode="6" d="M98 463q0 152 84 287l428 684h215l-327 -504q30 24 88 24q146 0 260 -67.5t173.5 -177.5t59.5 -242q0 -133 -59.5 -244t-172.5 -178.5t-257 -67.5q-109 0 -202.5 39.5t-156 106t-98 155t-35.5 185.5zM285 465q0 -132 84 -226t219 -94t220 93.5t85 226.5q0 135 -85.5 227 t-219.5 92q-135 0 -219 -92.5t-84 -226.5z" />
<glyph unicode="7" d="M186 1266v168h889l-637 -1434h-198l569 1266h-623z" />
<glyph unicode="8" d="M90 401q0 121 62 219t178 130q-104 36 -155.5 120.5t-51.5 188.5q0 171 122 284t326 113q205 0 328 -114.5t123 -282.5q0 -104 -52 -188.5t-155 -120.5q113 -31 175.5 -128.5t62.5 -218.5q0 -86 -33.5 -163t-94 -135.5t-152.5 -93t-202 -34.5q-217 0 -349 122t-132 302z M279 403q0 -110 79.5 -184t212.5 -74q134 0 214.5 74.5t80.5 183.5t-79.5 184t-215.5 75q-135 0 -213.5 -74.5t-78.5 -184.5zM309 1051q0 -102 71.5 -170t192.5 -68q120 0 191.5 68.5t71.5 169.5t-72 169t-191 68q-120 0 -192 -68t-72 -169z" />
<glyph unicode="9" d="M98 969q0 132 60 242.5t174 177.5t258 67t257 -66.5t172.5 -176t59.5 -240.5q0 -147 -86 -289l-426 -684h-215l328 504q-9 -11 -37 -17t-51 -6q-110 0 -203.5 39t-156.5 106t-98.5 155.5t-35.5 187.5zM285 969q0 -134 85 -227t220 -93t219 93t84 227t-84 226.5t-219 92.5 t-220 -92.5t-85 -226.5z" />
<glyph unicode=":" horiz-adv-x="522" d="M119 131q0 60 41.5 102.5t99.5 42.5q60 0 103 -42.5t43 -102.5q0 -59 -43 -101t-103 -42q-58 0 -99.5 42t-41.5 101zM119 817q0 60 41 102t100 42q60 0 103 -42.5t43 -101.5q0 -60 -43 -101.5t-103 -41.5q-59 0 -100 41t-41 102z" />
<glyph unicode=";" horiz-adv-x="538" d="M119 131q0 61 41.5 103t107.5 42q76 0 122 -59t46 -168q0 -144 -82.5 -215.5t-224.5 -71.5v88q100 0 147 64q31 44 31 90q-16 -16 -53 -16q-58 0 -96.5 42t-38.5 101zM119 817q0 60 41 102t100 42q60 0 103 -42t43 -102t-43 -101.5t-103 -41.5q-59 0 -100 41.5t-41 101.5 z" />
<glyph unicode="&#x3c;" d="M70 516v129l1038 371v-170l-776 -264l776 -267v-168z" />
<glyph unicode="=" d="M176 336v160h828v-160h-828zM176 668v157h828v-157h-828z" />
<glyph unicode="&#x3e;" d="M70 147v168l776 267l-776 264v170l1038 -371v-129z" />
<glyph unicode="?" horiz-adv-x="1032" d="M47 1010q0 206 130 327t329 121q187 0 311.5 -107.5t124.5 -283.5q0 -59 -16.5 -112.5t-37 -88.5t-57 -71.5t-57 -53t-55.5 -41.5q-55 -41 -83 -66.5t-49 -61.5t-27.5 -77.5t-6.5 -109.5h-180q2 147 41.5 233t138.5 156q40 29 58.5 43t52 45.5t49.5 57t29.5 64.5t13.5 81 q0 107 -69.5 166t-180.5 59q-124 0 -198.5 -73t-74.5 -207h-186zM315 123q0 62 42.5 104.5t105.5 42.5t107 -43t44 -104q0 -62 -44 -107t-107 -45q-62 0 -105 45t-43 107z" />
<glyph unicode="@" horiz-adv-x="1748" d="M53 432q0 123 30 239t97 223.5t164.5 187.5t243 127.5t321.5 47.5q180 0 327 -49t255.5 -146t168.5 -251t60 -354q0 -247 -88 -393t-252 -146q-107 0 -179.5 59.5t-72.5 149.5v37q-41 -77 -118 -119.5t-174 -42.5q-171 0 -287.5 124.5t-116.5 295.5q0 173 117 297.5 t289 124.5q98 0 174.5 -43.5t115.5 -118.5v143h150v-579q0 -93 32.5 -142t86.5 -49q78 0 125 103t47 282q0 177 -49.5 310t-139.5 213t-208.5 119.5t-264.5 39.5q-125 0 -230 -28t-180.5 -78.5t-133 -116t-91.5 -144t-50.5 -159t-16.5 -164.5q0 -113 29 -215.5t90 -191.5 t148 -154.5t210 -103t270 -37.5q131 0 280 31.5t279 103.5l72 -117q-146 -83 -312.5 -118.5t-318.5 -35.5q-176 0 -324 45t-253 123.5t-178.5 185t-108.5 229t-35 255.5zM584 422q0 -119 74.5 -202t195.5 -83t197.5 83t76.5 202q0 120 -77 203.5t-197 83.5t-195 -83.5 t-75 -203.5z" />
<glyph unicode="A" horiz-adv-x="1144" d="M10 0l494 1434h135l496 -1434h-197l-76 219h-581l-74 -219h-197zM338 389h467l-232 739z" />
<glyph unicode="B" horiz-adv-x="1210" d="M160 0v1434h489q99 0 177.5 -26t126 -67t78.5 -95.5t42.5 -105.5t11.5 -104q0 -131 -70 -211.5t-167 -101.5q42 -9 83 -32.5t79.5 -61t62 -96.5t23.5 -130q0 -53 -12 -104.5t-43.5 -107t-79 -97t-125.5 -68t-177 -26.5h-499zM346 168h313q67 0 118 22.5t78.5 58.5 t40.5 74.5t13 77.5q0 41 -14 81t-41.5 76t-76.5 58.5t-113 22.5h-318v-471zM346 809h307q66 0 116 21.5t77 56.5t40 72.5t13 76.5q0 31 -7.5 61.5t-26 61.5t-46 54.5t-71.5 38t-99 14.5h-303v-457z" />
<glyph unicode="C" horiz-adv-x="1587" d="M84 719q0 118 31 228t94 204t150.5 164.5t207.5 110.5t258 40q142 0 262.5 -41.5t206 -114t140 -169.5t73.5 -209h-196q-33 163 -160 264.5t-320 101.5q-103 0 -193 -31t-155.5 -86t-113 -128t-71.5 -158t-24 -176q0 -158 69.5 -290.5t200 -213t294.5 -80.5 q172 0 294.5 85.5t170.5 221.5h204q-55 -204 -236.5 -339.5t-441.5 -135.5q-168 0 -309.5 61t-236 164.5t-147 240t-52.5 286.5z" />
<glyph unicode="D" horiz-adv-x="1427" d="M160 0v1434h442q172 0 315.5 -61t235.5 -162t142.5 -229t50.5 -265t-50.5 -265t-142.5 -229t-235.5 -162t-315.5 -61h-442zM346 168h256q128 0 234 47t174 124.5t105.5 175t37.5 202.5q0 106 -37.5 204t-105.5 175t-174 123.5t-234 46.5h-256v-1098z" />
<glyph unicode="E" horiz-adv-x="1114" d="M160 0v1434h805v-168h-619v-469h619v-168h-619v-461h619v-168h-805z" />
<glyph unicode="F" horiz-adv-x="1101" d="M160 0v1434h805v-168h-619v-512h619v-168h-619v-586h-186z" />
<glyph unicode="G" horiz-adv-x="1712" d="M84 711q0 148 51.5 284.5t144 241t231 167t302.5 62.5q242 0 410 -123.5t196 -308.5h-188q-29 113 -142 188.5t-272 75.5q-123 0 -227 -48.5t-172 -129.5t-106 -186.5t-38 -220.5q0 -113 37 -216t105.5 -184t177.5 -129.5t242 -48.5q204 0 325.5 106.5t145.5 280.5h-338 v168h690v-168h-154q-41 -253 -218.5 -404t-457.5 -151q-175 0 -319 62.5t-235.5 167t-141 237t-49.5 277.5z" />
<glyph unicode="H" horiz-adv-x="1359" d="M160 0v1434h186v-637h668v637h186v-1434h-186v629h-668v-629h-186z" />
<glyph unicode="I" horiz-adv-x="512" d="M160 0v1434h192v-1434h-192z" />
<glyph unicode="J" horiz-adv-x="1097" d="M29 455h186q0 -144 76.5 -232t204.5 -88q126 0 198 87t72 233v979h186v-979q0 -215 -123 -351.5t-333 -136.5q-212 0 -339.5 137.5t-127.5 350.5z" />
<glyph unicode="K" horiz-adv-x="1208" d="M160 0v1434h186v-652l602 652h236l-656 -717l656 -717h-236l-602 651v-651h-186z" />
<glyph unicode="L" horiz-adv-x="870" d="M160 0v1434h186v-1266h469v-168h-655z" />
<glyph unicode="M" horiz-adv-x="1662" d="M160 0v1434h180l491 -1147l492 1147h180v-1434h-188v999l-412 -999h-143l-414 999v-999h-186z" />
<glyph unicode="N" horiz-adv-x="1357" d="M160 0v1434h207l645 -1108v1108h186v-1434h-207l-645 1108v-1108h-186z" />
<glyph unicode="O" horiz-adv-x="1644" d="M84 717q0 146 51.5 281t144.5 239.5t234 166.5t309 62q167 0 308.5 -62.5t234.5 -166.5t145 -239t52 -281q0 -116 -32.5 -226.5t-96.5 -205t-152 -166t-206.5 -112t-252.5 -40.5q-135 0 -253.5 40.5t-206.5 112t-151.5 166t-95.5 205t-32 226.5zM279 717 q0 -113 38 -217.5t106.5 -185.5t172.5 -130t227 -49q122 0 226 49t172.5 130t106.5 185.5t38 217.5q0 152 -64.5 283.5t-190.5 214.5t-288 83q-123 0 -227 -48.5t-172.5 -129.5t-106.5 -185.5t-38 -217.5z" />
<glyph unicode="P" horiz-adv-x="1220" d="M160 0v1434h504q145 0 258.5 -67.5t173 -178t59.5 -242.5q0 -133 -59.5 -243.5t-173 -178t-258.5 -67.5h-318v-457h-186zM346 627h318q136 0 220.5 92.5t84.5 226.5q0 133 -84.5 226.5t-220.5 93.5h-318v-639z" />
<glyph unicode="Q" horiz-adv-x="1644" d="M84 717q0 146 51.5 281t144.5 239.5t234 166.5t309 62q167 0 308.5 -62.5t234.5 -166.5t145 -239t52 -281q0 -258 -148 -457t-391 -262l127 -178q-68 -32 -166 -82l-164 229q-135 1 -253.5 41.5t-206 112t-150.5 166t-95 204.5t-32 226zM279 717q0 -113 38 -217.5 t106.5 -185.5t172.5 -130t227 -49q122 0 226 49t172.5 130t106.5 185.5t38 217.5q0 152 -64.5 283.5t-190.5 214.5t-288 83q-123 0 -227 -48.5t-172.5 -129.5t-106.5 -185.5t-38 -217.5z" />
<glyph unicode="R" horiz-adv-x="1241" d="M160 0v1434h504q145 0 258.5 -67.5t173 -178t59.5 -242.5q0 -158 -85.5 -283t-231.5 -176l301 -487h-213l-285 457h-295v-457h-186zM346 627h318q136 0 220.5 92.5t84.5 226.5q0 133 -84.5 226.5t-220.5 93.5h-318v-639z" />
<glyph unicode="S" horiz-adv-x="1169" d="M92 457h187q0 -147 88 -234.5t235 -87.5q127 0 206 66t79 180q0 48 -17 87.5t-40 64t-64.5 46.5t-71.5 33t-80 27q-65 21 -105 34.5t-96 36.5t-89.5 44.5t-72 54t-59.5 68.5t-35 84.5t-14 105.5q0 125 60.5 217t159 137t221.5 45q202 0 328.5 -120.5t127.5 -317.5h-186 q-3 129 -73 199.5t-195 70.5q-114 0 -185 -59t-71 -160q0 -43 15.5 -78.5t37 -58.5t61 -44.5t70.5 -33.5t82 -28q50 -16 79.5 -26t75.5 -27.5t74.5 -32t66 -36.5t61 -44t49 -52t39.5 -63t23 -74t9 -88q0 -130 -64.5 -228t-172.5 -148t-242 -50q-220 0 -361 133t-141 357z " />
<glyph unicode="T" horiz-adv-x="978" d="M25 1266v168h929v-168h-372v-1266h-187v1266h-370z" />
<glyph unicode="U" horiz-adv-x="1288" d="M145 465v969h187v-969q0 -137 86.5 -233.5t224.5 -96.5t225.5 96t87.5 234v969h187v-969q0 -135 -61 -248t-176.5 -181.5t-262.5 -68.5t-262 68.5t-175.5 181.5t-60.5 248z" />
<glyph unicode="V" horiz-adv-x="1153" d="M8 1434h197l373 -1127l370 1127h197l-500 -1434h-135z" />
<glyph unicode="W" horiz-adv-x="1974" d="M12 1434h197l360 -1110l349 1110h141l348 -1110l360 1110h197l-491 -1434h-138l-348 1110l-346 -1110h-139z" />
<glyph unicode="X" horiz-adv-x="1122" d="M20 0l435 717l-435 717h211l330 -555l330 555h213l-436 -717l436 -717h-213l-330 555l-330 -555h-211z" />
<glyph unicode="Y" horiz-adv-x="1193" d="M20 1434h218l419 -670l338 670h205l-721 -1434h-205l287 569z" />
<glyph unicode="Z" horiz-adv-x="1157" d="M29 0l796 1266h-753v168h1067l-797 -1266h803v-168h-1116z" />
<glyph unicode="[" horiz-adv-x="686" d="M160 -479v2107h403v-160h-225v-1790h225v-157h-403z" />
<glyph unicode="\" horiz-adv-x="892" d="M-10 1587l162 70l745 -1733l-162 -69z" />
<glyph unicode="]" horiz-adv-x="686" d="M123 -322h225v1788h-225v160h403v-2105h-403v157z" />
<glyph unicode="^" horiz-adv-x="1306" d="M123 662l463 874h127l471 -874h-201l-332 651l-334 -651h-194z" />
<glyph unicode="_" horiz-adv-x="1146" d="M61 -102h1024v-125h-1024v125z" />
<glyph unicode="`" horiz-adv-x="1013" d="M182 1360l86 139l510 -280l-86 -140z" />
<glyph unicode="a" horiz-adv-x="1222" d="M84 465q0 131 60 243t168.5 179t240.5 67q115 0 202 -50.5t132 -133.5v160h176v-930h-176v162q-45 -83 -132.5 -134t-203.5 -51q-99 0 -186.5 39.5t-148.5 106t-96.5 156t-35.5 186.5zM260 465q0 -137 87 -232.5t226 -95.5t226.5 95.5t87.5 232.5t-87.5 233.5 t-226.5 96.5t-226 -96t-87 -234z" />
<glyph unicode="b" horiz-adv-x="1226" d="M160 0v1434h178v-664q45 83 131.5 133.5t202.5 50.5q132 0 240.5 -67t168.5 -179t60 -243q0 -97 -35.5 -186t-96.5 -155.5t-149 -106.5t-188 -40q-116 0 -202.5 51t-131.5 134v-162h-178zM338 465q0 -138 87.5 -233t225.5 -95q139 0 225.5 96t86.5 232t-87 233t-225 97 t-225.5 -96t-87.5 -234z" />
<glyph unicode="c" horiz-adv-x="1083" d="M88 465q0 96 30 183t87 156t149 109.5t207 40.5q100 0 181 -30.5t133 -82t81.5 -115t34.5 -134.5h-178q-9 91 -72.5 147t-175.5 56q-148 0 -223.5 -94.5t-75.5 -235.5q0 -68 18 -126t53.5 -104t95 -72t136.5 -26q198 0 246 182h178q-20 -146 -131.5 -244t-298.5 -98 q-116 0 -208.5 40.5t-149.5 109.5t-87 155.5t-30 182.5z" />
<glyph unicode="d" horiz-adv-x="1222" d="M84 465q0 131 60 243t168.5 179t240.5 67q115 0 202 -50.5t132 -133.5v664h176v-1434h-176v162q-45 -83 -132.5 -134t-203.5 -51q-99 0 -186.5 39.5t-148.5 106t-96.5 156t-35.5 186.5zM260 465q0 -137 87 -232.5t226 -95.5t226.5 95.5t87.5 232.5t-87.5 233.5 t-226.5 96.5t-226 -96t-87 -234z" />
<glyph unicode="e" horiz-adv-x="1075" d="M88 469q0 211 123.5 348t325.5 137q192 0 316 -119.5t124 -299.5q0 -66 -8 -117h-699q0 -128 70 -209.5t211 -81.5q180 0 237 147h181q-26 -126 -137 -211.5t-281 -85.5q-113 0 -203 40.5t-146 109.5t-85 156.5t-29 185.5zM272 553h533q0 113 -73.5 181.5t-190.5 68.5 q-113 0 -189.5 -66.5t-79.5 -183.5z" />
<glyph unicode="f" horiz-adv-x="710" d="M43 780v150h201v162q0 69 12 125t31 92.5t47 63t53.5 40t58.5 21.5t55 10t48 2q91 0 139 -25v-151q-53 16 -113 16q-32 0 -53.5 -4.5t-47 -20.5t-39 -54t-13.5 -97v-180h266v-150h-266v-780h-178v780h-201z" />
<glyph unicode="g" horiz-adv-x="1218" d="M84 465q0 131 60 243t168.5 179t240.5 67q115 0 202 -50.5t132 -133.5v160h176v-989q0 -239 -127 -352t-352 -113q-103 0 -185.5 23.5t-136 61.5t-90.5 91.5t-54.5 109.5t-21.5 119h180q10 -111 82 -179.5t220 -68.5q145 0 227 75t82 233v221q-45 -83 -132.5 -134 t-203.5 -51q-99 0 -186.5 39.5t-148.5 106t-96.5 156t-35.5 186.5zM260 465q0 -137 87 -232.5t226 -95.5t226.5 95.5t87.5 232.5t-87.5 233.5t-226.5 96.5t-226 -96t-87 -234z" />
<glyph unicode="h" horiz-adv-x="1157" d="M160 0v1434h178v-668q43 88 127.5 138t202.5 50q184 0 276 -123q72 -99 72 -282v-549h-178v494q0 138 -56.5 220.5t-177.5 82.5q-129 0 -197.5 -92t-68.5 -226v-479h-178z" />
<glyph unicode="i" horiz-adv-x="565" d="M139 1282q0 60 42 102.5t102 42.5t101.5 -42.5t41.5 -102.5q0 -59 -41.5 -100t-101.5 -41t-102 41t-42 100zM195 0v930h176v-930h-176z" />
<glyph unicode="j" horiz-adv-x="561" d="M10 -348q58 -17 86 -17q99 0 99 125v1170h176v-1180q0 -272 -215 -272q-89 0 -146 24v150zM139 1282q0 60 42 102.5t102 42.5t101.5 -42.5t41.5 -102.5q0 -59 -41.5 -100t-101.5 -41t-102 41t-42 100z" />
<glyph unicode="k" horiz-adv-x="976" d="M160 0v1434h178v-928l389 424h225l-424 -465l424 -465h-225l-389 422v-422h-178z" />
<glyph unicode="l" horiz-adv-x="497" d="M160 0v1434h178v-1434h-178z" />
<glyph unicode="m" horiz-adv-x="1687" d="M160 0v930h178v-166q31 85 103 137.5t182 52.5q111 0 187 -53t101 -145q33 86 113.5 142t200.5 56q82 0 144 -28t99 -78.5t55.5 -115.5t18.5 -144v-588h-178v535q0 128 -50.5 195t-146.5 67q-106 0 -166.5 -82.5t-60.5 -241.5v-473h-178v524q0 273 -193 273 q-106 0 -168.5 -82.5t-62.5 -241.5v-473h-178z" />
<glyph unicode="n" horiz-adv-x="1157" d="M160 0v930h178v-164q43 88 127.5 138t202.5 50q184 0 276 -123q72 -99 72 -282v-549h-178v494q0 138 -56.5 220.5t-177.5 82.5q-129 0 -197.5 -92t-68.5 -226v-479h-178z" />
<glyph unicode="o" horiz-adv-x="1146" d="M84 465q0 132 59.5 243t172.5 178.5t257 67.5q143 0 256.5 -67.5t173.5 -178.5t60 -243q0 -98 -35.5 -187t-98 -155.5t-155 -106t-201.5 -39.5q-145 0 -258 67.5t-172 178t-59 242.5zM260 465q0 -137 87 -232.5t226 -95.5t226.5 95.5t87.5 232.5t-87.5 233.5t-226.5 96.5 t-226 -96t-87 -234z" />
<glyph unicode="p" horiz-adv-x="1226" d="M160 -504v1434h178v-160q45 83 131.5 133.5t202.5 50.5q132 0 240.5 -67t168.5 -179t60 -243q0 -97 -35.5 -186t-96.5 -155.5t-149 -106.5t-188 -40q-116 0 -202.5 51t-131.5 134v-666h-178zM338 465q0 -138 87.5 -233t225.5 -95q139 0 225.5 96t86.5 232t-87 233 t-225 97t-225.5 -96t-87.5 -234z" />
<glyph unicode="q" horiz-adv-x="1226" d="M86 465q0 131 60 243t168.5 179t240.5 67q116 0 202.5 -50.5t131.5 -133.5v160h178v-1434h-178v666q-45 -83 -131.5 -134t-202.5 -51q-100 0 -188 40t-149 106.5t-96.5 155.5t-35.5 186zM264 465q0 -136 86 -232t225 -96q138 0 226 95t88 233t-88 234t-226 96 t-224.5 -96.5t-86.5 -233.5z" />
<glyph unicode="r" horiz-adv-x="747" d="M160 0v930h178v-182q37 87 123 141.5t188 54.5q51 0 86 -14v-164q-46 10 -82 10q-157 0 -236 -97.5t-79 -270.5v-408h-178z" />
<glyph unicode="s" horiz-adv-x="925" d="M82 313h174q0 -101 59.5 -147.5t161.5 -46.5q86 0 135.5 33t49.5 98q0 18 -4.5 33t-11.5 26t-23 21.5t-29.5 18t-41.5 17.5t-50 17t-63 20t-72 23q-60 20 -98 37.5t-77 46.5t-58 71.5t-19 100.5q0 132 97 202t241 70q162 0 265 -87t103 -226h-172q0 82 -48.5 126 t-139.5 44q-78 0 -126 -32.5t-48 -92.5q0 -20 5 -35.5t19 -28.5t26 -21.5t41 -19.5t47.5 -17t61.5 -19t68 -21q36 -12 57.5 -19.5t54.5 -21.5t53 -27t43.5 -34t36.5 -43.5t22 -54t9 -68.5q0 -134 -100 -206.5t-256 -72.5q-171 0 -282 87t-111 249z" />
<glyph unicode="t" horiz-adv-x="696" d="M41 780v150h172v313h178v-313h242v-150h-242v-428q0 -65 10.5 -107t33.5 -62t47.5 -26.5t62.5 -6.5q67 0 121 8v-158q-70 -12 -162 -12q-42 0 -74.5 4t-76 23t-71.5 51.5t-48.5 96t-20.5 150.5v467h-172z" />
<glyph unicode="u" horiz-adv-x="1157" d="M141 381v549h178v-492q0 -139 55.5 -221t176.5 -82q87 0 149.5 45t90.5 115.5t28 157.5v477h178v-930h-178v166q-43 -87 -128.5 -138t-203.5 -51q-186 0 -276 121q-70 96 -70 283z" />
<glyph unicode="v" horiz-adv-x="987" d="M8 930h193l291 -676l294 676h193l-426 -930h-123z" />
<glyph unicode="w" horiz-adv-x="1503" d="M8 930h191l231 -656l234 656h176l231 -656l234 656h190l-360 -930h-123l-260 735l-260 -735h-123z" />
<glyph unicode="x" horiz-adv-x="901" d="M33 0l315 469l-311 461h205l209 -324l208 324h205l-311 -461l315 -469h-204l-213 330l-213 -330h-205z" />
<glyph unicode="y" horiz-adv-x="1173" d="M143 -121h174q7 -246 263 -246q133 0 197.5 70.5t64.5 230.5v232q-94 -189 -332 -189q-188 0 -277 119q-38 52 -53.5 119.5t-15.5 171.5v543h178v-488q0 -307 231 -307q133 0 201 91t68 227v477h178v-996q0 -238 -115.5 -348t-322.5 -110q-112 0 -196.5 30.5t-135.5 86 t-77.5 127t-29.5 159.5z" />
<glyph unicode="z" horiz-adv-x="888" d="M49 0l498 772h-481v158h782l-498 -770h500v-160h-801z" />
<glyph unicode="{" horiz-adv-x="860" d="M139 475v148q37 0 78.5 17t76 60t34.5 103v538q0 135 85 210t195 75h135v-135h-94q-72 0 -107.5 -50t-35.5 -126v-535q0 -57 -20 -101.5t-52.5 -70t-62 -39t-58.5 -18.5q31 -7 59 -19.5t61 -39t53 -75.5t20 -114v-471q0 -74 35.5 -125t107.5 -51h94v-135h-135 q-51 0 -100 17.5t-89.5 51.5t-65.5 90t-25 125v476q0 50 -20 89.5t-50 61t-61 32.5t-58 11z" />
<glyph unicode="|" horiz-adv-x="497" d="M160 -479v2105h178v-2105h-178z" />
<glyph unicode="}" horiz-adv-x="860" d="M119 -344h92q72 0 107.5 51t35.5 125v471q0 65 20 114t53 75.5t61 39t59 19.5q-29 5 -58.5 18.5t-62 39t-52.5 70t-20 101.5v535q0 76 -35.5 126t-107.5 50h-92v135h135q51 0 100 -18t90 -52t66 -90t25 -125v-538q0 -46 20 -82.5t50 -56.5t60.5 -30.5t57.5 -10.5v-148 q-27 0 -57.5 -11t-61 -32.5t-50 -61t-19.5 -89.5v-476q0 -92 -43.5 -158.5t-105.5 -96t-132 -29.5h-135v135z" />
<glyph unicode="~" horiz-adv-x="1060" d="M76 438v158q89 111 221 111q82 0 240 -66q17 -7 50.5 -21.5t50.5 -21t42 -15.5t45 -12.5t39 -3.5q102 0 219 113v-156q-93 -116 -229 -116q-50 0 -99 17t-125 54q-140 68 -233 68q-112 0 -221 -109z" />
<glyph unicode="&#xa1;" horiz-adv-x="606" d="M162 1313q0 60 42 101.5t101 41.5q60 0 103 -42t43 -101q0 -60 -43 -103t-103 -43q-59 0 -101 42.5t-42 103.5zM209 -6v999h194v-999h-194z" />
<glyph unicode="&#xa2;" horiz-adv-x="1155" d="M117 641q0 117 42.5 218.5t130.5 174t208 90.5v224h168v-222q86 -12 153 -46.5t108 -84t63.5 -106t27.5 -119.5h-178q-8 90 -71.5 146.5t-176.5 56.5q-75 0 -133.5 -27t-93.5 -73.5t-52.5 -105t-17.5 -126.5q0 -67 17.5 -124.5t53 -103.5t95 -72t137.5 -26q198 0 246 183 h178q-21 -136 -111 -226.5t-245 -109.5v-221h-168v223q-180 27 -280.5 162.5t-100.5 314.5z" />
<glyph unicode="&#xa3;" horiz-adv-x="1204" d="M80 688v168h139v193q0 177 130 292t319 115q198 0 324 -126t126 -322h-186q0 125 -68.5 201.5t-197.5 76.5q-116 0 -185 -59.5t-71 -151.5l-2 -219h340v-168h-340v-96q0 -350 -68 -424h664v-168h-877v141q92 89 92 451v96h-139z" />
<glyph unicode="&#xa4;" horiz-adv-x="1531" d="M197 334l139 139q-88 124 -88 285q0 160 88 284l-139 140l112 112l137 -139q126 92 289 92t291 -90l137 137l113 -112l-137 -138q90 -129 90 -286q0 -161 -90 -287l135 -137l-111 -113l-137 137q-125 -88 -291 -88q-161 0 -286 88l-140 -137zM426 758q0 -136 86 -232 t225 -96q138 0 226 95t88 233t-88 233.5t-226 95.5t-224.5 -96.5t-86.5 -232.5z" />
<glyph unicode="&#xa5;" horiz-adv-x="1214" d="M-45 1434h217l438 -676l432 676h215l-530 -832h299v-149h-332v-146h332v-149h-332v-158h-170v158h-325v149h325v146h-325v149h293z" />
<glyph unicode="&#xa6;" horiz-adv-x="497" d="M160 473h178v-952h-178v952zM160 672v954h178v-954h-178z" />
<glyph unicode="&#xa7;" horiz-adv-x="1187" d="M90 555q0 114 63 196t173 111q-77 49 -116.5 123t-39.5 162q0 165 129 265.5t317 100.5q202 0 331.5 -116t129.5 -299h-188q0 115 -74 186.5t-201 71.5q-109 0 -182.5 -53.5t-73.5 -151.5q0 -42 16 -76t38 -56t63 -42.5t71.5 -31.5t82.5 -27q66 -21 106 -34.5t96.5 -35.5 t90.5 -42t72.5 -49.5t60 -61t35.5 -73.5t14 -90q0 -118 -69.5 -206.5t-162.5 -108.5q164 -98 164 -283q0 -113 -61 -197t-160.5 -125.5t-222.5 -41.5q-211 0 -345 118.5t-134 305.5h188q0 -119 78.5 -193.5t214.5 -74.5q109 0 181.5 50.5t72.5 149.5q0 42 -15 75.5t-37.5 56 t-63 43t-75.5 33.5t-92 30q-55 17 -84 26.5t-77.5 27t-75.5 30t-65 33t-59 39t-46.5 45t-38 54t-21 62.5t-8.5 74zM281 571q0 -67 41 -112.5t131 -75.5l247 -84q87 5 151 64t64 149q0 66 -38.5 106t-124.5 70l-254 90q-98 -4 -157.5 -63t-59.5 -144z" />
<glyph unicode="&#xa8;" horiz-adv-x="1138" d="M184 1315q0 58 40.5 98.5t97.5 40.5t97 -40.5t40 -98.5q0 -57 -40 -96t-97 -39t-97.5 39t-40.5 96zM655 1315q0 58 39.5 98.5t96.5 40.5q59 0 99 -40t40 -99q0 -57 -40 -96t-99 -39q-57 0 -96.5 39t-39.5 96z" />
<glyph unicode="&#xa9;" horiz-adv-x="1650" d="M86 717q0 117 32.5 227.5t96 205t151.5 166t206.5 112t252.5 40.5t252.5 -40.5t206.5 -112t152 -166t96.5 -205t32.5 -227.5t-32.5 -227.5t-96.5 -205.5t-152 -166.5t-206.5 -112t-252.5 -40.5t-252.5 40.5t-206.5 112t-151.5 166.5t-96 205.5t-32.5 227.5zM252 717 q0 -119 40 -229.5t112 -196.5t182 -137.5t239 -51.5t239 51.5t182 137.5t112.5 196.5t40.5 229.5t-40.5 229.5t-112.5 196t-182 137t-239 51.5t-239 -51.5t-182 -137t-112 -196t-40 -229.5zM379 719q0 90 30.5 172t87 146.5t144.5 102.5t195 38q175 0 283.5 -95t131.5 -235 h-137q-22 89 -96 149t-187 60q-98 0 -171 -48.5t-108.5 -124t-35.5 -165.5q0 -142 88.5 -242t231.5 -100q98 0 171 47.5t103 122.5h141q-34 -126 -145 -208.5t-270 -82.5q-136 0 -242 64.5t-160.5 169t-54.5 229.5z" />
<glyph unicode="&#xaa;" horiz-adv-x="1222" d="M84 465q0 131 60 243t168.5 179t240.5 67q115 0 202 -50.5t132 -133.5v160h176v-930h-176v162q-45 -83 -132.5 -134t-203.5 -51q-99 0 -186.5 39.5t-148.5 106t-96.5 156t-35.5 186.5zM260 465q0 -137 87 -232.5t226 -95.5t226.5 95.5t87.5 232.5t-87.5 233.5 t-226.5 96.5t-226 -96t-87 -234z" />
<glyph unicode="&#xab;" horiz-adv-x="966" d="M82 543v108l401 342v-176l-258 -221l258 -221v-174zM483 543v108l402 342v-176l-258 -221l258 -221v-174z" />
<glyph unicode="&#xac;" d="M176 623v159h828v-465h-179v306h-649z" />
<glyph unicode="&#xad;" horiz-adv-x="602" d="M61 504v160h480v-160h-480z" />
<glyph unicode="&#xae;" horiz-adv-x="1654" d="M86 717q0 146 52 281.5t145 240t234.5 167t309.5 62.5t309.5 -62.5t235 -167t145.5 -240t52 -281.5t-52 -281.5t-145.5 -240.5t-235 -167.5t-309.5 -62.5q-135 0 -253.5 40.5t-207 112t-152 166.5t-96 205.5t-32.5 227.5zM252 717q0 -119 40 -229.5t112.5 -196.5 t182.5 -137.5t240 -51.5t240.5 51.5t182.5 137.5t112.5 196.5t40.5 229.5t-40.5 229.5t-112.5 196t-182.5 137t-240.5 51.5t-240 -51.5t-182.5 -137t-112.5 -196t-40 -229.5zM561 332v833h324q126 0 205 -82.5t79 -201.5q0 -92 -49.5 -164t-136.5 -101l178 -284h-145 l-166 266h-160v-266h-129zM690 711h182q72 0 116 49.5t44 120.5t-44.5 121.5t-115.5 50.5h-182v-342z" />
<glyph unicode="&#xaf;" horiz-adv-x="1110" d="M188 1481v159h734v-159h-734z" />
<glyph unicode="&#xb0;" horiz-adv-x="673" d="M43 1176q0 123 85 207.5t208 84.5t208 -84.5t85 -207.5t-85 -208t-208 -85t-208 85t-85 208zM172 1176q0 -69 48 -117.5t116 -48.5q69 0 117.5 48.5t48.5 117.5q0 68 -48.5 117.5t-117.5 49.5q-67 0 -115.5 -49.5t-48.5 -117.5z" />
<glyph unicode="&#xb1;" d="M180 49v160h817v-160h-817zM180 776v160h320v330h178v-330h319v-160h-319v-327h-178v327h-320z" />
<glyph unicode="&#xb2;" horiz-adv-x="757" d="M113 645q0 93 14 159.5t45 111.5t67 73.5t93 57.5q47 24 69.5 37t51 35.5t40 48t11.5 57.5q0 53 -31.5 81.5t-85.5 28.5q-58 0 -92.5 -35t-34.5 -102h-145q0 110 73.5 180t198.5 70q113 0 186.5 -60t73.5 -165q0 -42 -14 -79.5t-32.5 -62t-50.5 -49.5t-53.5 -37.5 t-56.5 -31.5q-96 -51 -127.5 -88.5t-31.5 -108.5h366v-121h-534z" />
<glyph unicode="&#xb3;" horiz-adv-x="782" d="M98 897h146q0 -68 39.5 -107.5t103.5 -39.5q62 0 96.5 35t34.5 92q0 55 -35 88.5t-104 33.5h-68v115h68q65 0 96 31t31 82q0 54 -31.5 81t-87.5 27q-123 0 -123 -129h-145q0 105 68 173.5t196 68.5q115 0 191.5 -57t76.5 -158q0 -68 -35 -115.5t-92 -62.5q64 -19 102 -70 t38 -123q0 -106 -79.5 -168.5t-201.5 -62.5q-131 0 -208 73t-77 193z" />
<glyph unicode="&#xb4;" horiz-adv-x="1013" d="M123 1219l510 280l86 -139l-510 -281z" />
<glyph unicode="&#xb5;" d="M160 -504v1434h178v-492q0 -140 56 -221.5t177 -81.5q87 0 149 45t90 115.5t28 157.5v477h178v-930h-178v166q-43 -89 -128.5 -139t-197.5 -50q-110 0 -174 58v-539h-178z" />
<glyph unicode="&#xb6;" horiz-adv-x="1337" d="M31 1067q0 74 19.5 134.5t50.5 101.5t75.5 72t89.5 48t97.5 28t93.5 14t84 3h653v-147h-109v-1624h-170v1622h-274v-1622h-168v977q-199 0 -320.5 99.5t-121.5 293.5z" />
<glyph unicode="&#xb7;" horiz-adv-x="522" d="M119 639q0 60 41.5 102.5t99.5 42.5q60 0 103 -42.5t43 -102.5q0 -58 -43 -99.5t-103 -41.5q-58 0 -99.5 41t-41.5 100z" />
<glyph unicode="&#xb8;" horiz-adv-x="978" d="M297 -301h109q6 -38 30 -60t62 -22q43 0 69.5 27.5t26.5 70.5t-26.5 69t-67.5 26q-55 0 -80 -52h-94v242h118v-145q27 41 88 41q66 0 118 -50.5t52 -126.5q0 -80 -55 -139t-141 -59q-27 0 -55.5 7t-62.5 24t-59 55t-32 92z" />
<glyph unicode="&#xb9;" horiz-adv-x="548" d="M96 1192v106q106 0 142 31t36 105h132v-789h-150v547h-160z" />
<glyph unicode="&#xba;" horiz-adv-x="1146" d="M84 465q0 132 59.5 243t172.5 178.5t257 67.5q143 0 256.5 -67.5t173.5 -178.5t60 -243q0 -98 -35.5 -187t-98 -155.5t-155 -106t-201.5 -39.5q-145 0 -258 67.5t-172 178t-59 242.5zM260 465q0 -137 87 -232.5t226 -95.5t226.5 95.5t87.5 232.5t-87.5 233.5t-226.5 96.5 t-226 -96t-87 -234z" />
<glyph unicode="&#xbb;" horiz-adv-x="966" d="M82 201v174l258 221l-258 221v176l401 -342v-108zM483 201v174l258 221l-258 221v176l402 -342v-108z" />
<glyph unicode="&#xbc;" horiz-adv-x="1884" d="M158 1192v106q106 0 142 31t36 105h131v-789h-150v547h-159zM307 -12l895 1542l144 -82l-897 -1542zM1161 238v550h146v-428h166v230h147v-230h106v-122h-106v-238h-147v238h-312z" />
<glyph unicode="&#xbd;" horiz-adv-x="1884" d="M174 1192v106q106 0 142 31t36 105h131v-789h-149v547h-160zM324 -12l895 1542l143 -82l-897 -1542zM1176 0q0 93 14 159t45 111t67 73.5t93 57.5q46 23 69 37t51 36t40 48t12 58q0 53 -31.5 81.5t-85.5 28.5q-58 0 -92.5 -35t-34.5 -102h-145q0 110 73.5 180t198.5 70 q113 0 186.5 -60t73.5 -165q0 -42 -14 -79.5t-32.5 -62t-50.5 -50t-53.5 -38.5t-56.5 -31q-97 -52 -128.5 -88.5t-31.5 -107.5h367v-121h-534z" />
<glyph unicode="&#xbe;" horiz-adv-x="1884" d="M121 897h145q0 -68 40 -107.5t104 -39.5q62 0 96.5 35t34.5 92q0 55 -35.5 88.5t-104.5 33.5h-67v115h67q65 0 96 31t31 82q0 54 -31 81t-87 27q-123 0 -123 -129h-146q0 105 68.5 173.5t196.5 68.5q115 0 191.5 -57t76.5 -158q0 -68 -35 -115.5t-92 -62.5 q64 -19 101.5 -70t37.5 -123q0 -106 -79 -168.5t-201 -62.5q-131 0 -208 73t-77 193zM344 -12l895 1542l143 -82l-897 -1542zM1198 238v550h145v-428h166v230h148v-230h106v-122h-106v-238h-148v238h-311z" />
<glyph unicode="&#xbf;" horiz-adv-x="1032" d="M90 369q0 43 9 83t20 69t34 60.5t36.5 48.5t44.5 43t40 33t39 29q55 41 83 66t49 61.5t27.5 78.5t6.5 110h180q-1 -149 -40.5 -233.5t-139.5 -155.5q-39 -28 -60 -44t-52.5 -46t-48 -56.5t-29.5 -64.5t-13 -80q0 -107 69.5 -166.5t180.5 -59.5q124 0 198.5 74t74.5 207 h186q0 -206 -130 -327.5t-329 -121.5q-187 0 -311.5 108t-124.5 284zM418 1315q0 62 44 105.5t107 43.5t105.5 -43.5t42.5 -105.5t-43 -106t-105 -44q-63 0 -107 44t-44 106z" />
<glyph unicode="&#xc0;" horiz-adv-x="1144" d="M10 0l494 1434h135l496 -1434h-197l-76 219h-581l-74 -219h-197zM309 1815l86 141l510 -281l-86 -141zM338 389h467l-232 739z" />
<glyph unicode="&#xc1;" horiz-adv-x="1144" d="M10 0l494 1434h135l496 -1434h-197l-76 219h-581l-74 -219h-197zM276 1645l510 280l84 -139l-510 -281zM338 389h467l-232 739z" />
<glyph unicode="&#xc2;" horiz-adv-x="1144" d="M10 0l494 1434h135l496 -1434h-197l-76 219h-581l-74 -219h-197zM205 1663l366 297l371 -297l-111 -125l-258 209l-256 -207zM338 389h467l-232 739z" />
<glyph unicode="&#xc3;" horiz-adv-x="1144" d="M10 0l494 1434h135l496 -1434h-197l-76 219h-581l-74 -219h-197zM213 1747q55 35 98.5 53.5t64 21.5t48.5 3q29 0 145 -28t156 -28q38 0 152 56l69 -115q-112 -84 -205 -84q-45 0 -154 26.5t-147 26.5q-55 0 -149 -49zM338 389h467l-232 739z" />
<glyph unicode="&#xc4;" horiz-adv-x="1144" d="M10 0l494 1434h135l496 -1434h-197l-76 219h-581l-74 -219h-197zM197 1726q0 60 41.5 103t99.5 43q60 0 102.5 -43t42.5 -103q0 -58 -42.5 -99.5t-102.5 -41.5q-58 0 -99.5 41.5t-41.5 99.5zM338 389h467l-232 739zM666 1726q0 60 41.5 103t101.5 43t101.5 -43t41.5 -103 q0 -59 -41.5 -100t-101.5 -41t-101.5 41t-41.5 100z" />
<glyph unicode="&#xc5;" horiz-adv-x="1144" d="M10 0l494 1434h135l496 -1434h-197l-76 219h-581l-74 -219h-197zM322 1747q0 104 73.5 178t177.5 74t178 -74.5t74 -177.5t-74 -177.5t-178 -74.5t-177.5 74.5t-73.5 177.5zM338 389h467l-232 739zM453 1747q0 -48 35 -83.5t85 -35.5q49 0 84 35.5t35 85.5t-34.5 85.5 t-84.5 35.5t-85 -36.5t-35 -86.5z" />
<glyph unicode="&#xc6;" horiz-adv-x="1771" d="M4 0l707 1434h903v-168h-617v-469h617v-168h-617v-461h617v-168h-805v221h-494l-106 -221h-205zM395 389h414v856z" />
<glyph unicode="&#xc7;" horiz-adv-x="1587" d="M84 719q0 147 50 281t141.5 238t234 166t315.5 62q142 0 262.5 -41.5t206 -114t140 -169.5t73.5 -209h-196q-33 163 -160 264.5t-320 101.5q-103 0 -193 -31t-155.5 -86t-113 -128t-71.5 -158t-24 -176q0 -158 69.5 -290.5t200 -213t294.5 -80.5q172 0 294.5 85.5 t170.5 221.5h204q-54 -200 -228.5 -333t-414.5 -140h-16v-84q29 37 88 37q66 0 117 -48t51 -126q0 -79 -54.5 -138t-142.5 -59q-29 0 -58 7.5t-61 25t-55.5 54t-30.5 86.5h109q8 -36 30.5 -56t57.5 -20q42 0 69 27t27 69t-26 68t-68 26q-54 0 -78 -49h-92v184 q-198 23 -347 131t-224.5 268t-75.5 347z" />
<glyph unicode="&#xc8;" horiz-adv-x="1114" d="M160 0v1434h805v-168h-619v-469h619v-168h-619v-461h619v-168h-805zM297 1788l84 139l510 -280l-84 -140z" />
<glyph unicode="&#xc9;" horiz-adv-x="1114" d="M160 0v1434h805v-168h-619v-469h619v-168h-619v-461h619v-168h-805zM270 1675l510 281l86 -141l-510 -281z" />
<glyph unicode="&#xca;" horiz-adv-x="1114" d="M160 0v1434h805v-168h-619v-469h619v-168h-619v-461h619v-168h-805zM201 1663l366 297l371 -297l-111 -125l-258 209l-256 -207z" />
<glyph unicode="&#xcb;" horiz-adv-x="1114" d="M160 0v1434h805v-168h-619v-469h619v-168h-619v-461h619v-168h-805zM207 1726q0 60 41.5 103t101.5 43t102 -43t42 -103q0 -59 -42 -100t-102 -41t-101.5 41t-41.5 100zM678 1726q0 60 41.5 103t99.5 43q60 0 103 -43t43 -103q0 -58 -43 -99.5t-103 -41.5 q-59 0 -100 41.5t-41 99.5z" />
<glyph unicode="&#xcc;" horiz-adv-x="512" d="M-41 1786l86 139l510 -280l-86 -140zM160 0v1434h192v-1434h-192z" />
<glyph unicode="&#xcd;" horiz-adv-x="512" d="M-41 1645l510 280l86 -139l-510 -281zM160 0v1434h192v-1434h-192z" />
<glyph unicode="&#xce;" horiz-adv-x="512" d="M-113 1663l369 297l371 -297l-111 -125l-258 209l-256 -207zM160 0v1434h192v-1434h-192z" />
<glyph unicode="&#xcf;" horiz-adv-x="512" d="M-102 1726q0 60 41.5 103t101.5 43q59 0 101 -43t42 -103q0 -59 -41.5 -100t-101.5 -41q-61 0 -102 41t-41 100zM160 0v1434h192v-1434h-192zM367 1726q0 60 41.5 103t101.5 43t101.5 -43t41.5 -103q0 -59 -41.5 -100t-101.5 -41t-101.5 41t-41.5 100z" />
<glyph unicode="&#xd0;" horiz-adv-x="1427" d="M-76 639v158h236v637h442q171 0 314 -61t235.5 -162t143.5 -229t51 -265t-51 -265t-143.5 -229t-235.5 -162t-314 -61h-442v639h-236zM346 168h256q128 0 234 47t174 124.5t105.5 175t37.5 202.5q0 106 -37.5 204t-105.5 175t-174 123.5t-234 46.5h-256v-469h248v-158 h-248v-471z" />
<glyph unicode="&#xd1;" horiz-adv-x="1357" d="M160 0v1434h207l645 -1108v1108h186v-1434h-207l-645 1108v-1108h-186zM299 1747q55 35 98.5 53.5t64 21.5t48.5 3q29 0 145 -28t156 -28q38 0 152 56l69 -115q-112 -84 -205 -84q-45 0 -154 26.5t-147 26.5q-55 0 -149 -49z" />
<glyph unicode="&#xd2;" horiz-adv-x="1644" d="M84 717q0 146 51.5 281t144.5 239.5t234 166.5t309 62q167 0 308.5 -62.5t234.5 -166.5t145 -239t52 -281q0 -116 -32.5 -226.5t-96.5 -205t-152 -166t-206.5 -112t-252.5 -40.5q-135 0 -253.5 40.5t-206.5 112t-151.5 166t-95.5 205t-32 226.5zM279 717 q0 -113 38 -217.5t106.5 -185.5t172.5 -130t227 -49q122 0 226 49t172.5 130t106.5 185.5t38 217.5q0 152 -64.5 283.5t-190.5 214.5t-288 83q-123 0 -227 -48.5t-172.5 -129.5t-106.5 -185.5t-38 -217.5zM551 1815l86 141l510 -281l-86 -141z" />
<glyph unicode="&#xd3;" horiz-adv-x="1644" d="M84 717q0 146 51.5 281t144.5 239.5t234 166.5t309 62q167 0 308.5 -62.5t234.5 -166.5t145 -239t52 -281q0 -116 -32.5 -226.5t-96.5 -205t-152 -166t-206.5 -112t-252.5 -40.5q-135 0 -253.5 40.5t-206.5 112t-151.5 166t-95.5 205t-32 226.5zM279 717 q0 -113 38 -217.5t106.5 -185.5t172.5 -130t227 -49q122 0 226 49t172.5 130t106.5 185.5t38 217.5q0 152 -64.5 283.5t-190.5 214.5t-288 83q-123 0 -227 -48.5t-172.5 -129.5t-106.5 -185.5t-38 -217.5zM492 1675l509 281l86 -141l-509 -281z" />
<glyph unicode="&#xd4;" horiz-adv-x="1644" d="M84 717q0 146 51.5 281t144.5 239.5t234 166.5t309 62q167 0 308.5 -62.5t234.5 -166.5t145 -239t52 -281q0 -116 -32.5 -226.5t-96.5 -205t-152 -166t-206.5 -112t-252.5 -40.5q-135 0 -253.5 40.5t-206.5 112t-151.5 166t-95.5 205t-32 226.5zM279 717 q0 -113 38 -217.5t106.5 -185.5t172.5 -130t227 -49q122 0 226 49t172.5 130t106.5 185.5t38 217.5q0 152 -64.5 283.5t-190.5 214.5t-288 83q-123 0 -227 -48.5t-172.5 -129.5t-106.5 -185.5t-38 -217.5zM455 1663l368 297l369 -297l-111 -125l-258 209l-256 -207z" />
<glyph unicode="&#xd5;" horiz-adv-x="1644" d="M84 717q0 146 51.5 281t144.5 239.5t234 166.5t309 62q167 0 308.5 -62.5t234.5 -166.5t145 -239t52 -281q0 -116 -32.5 -226.5t-96.5 -205t-152 -166t-206.5 -112t-252.5 -40.5q-135 0 -253.5 40.5t-206.5 112t-151.5 166t-95.5 205t-32 226.5zM279 717 q0 -113 38 -217.5t106.5 -185.5t172.5 -130t227 -49q122 0 226 49t172.5 130t106.5 185.5t38 217.5q0 152 -64.5 283.5t-190.5 214.5t-288 83q-123 0 -227 -48.5t-172.5 -129.5t-106.5 -185.5t-38 -217.5zM455 1747q55 35 98.5 53.5t64 21.5t48.5 3q29 0 145 -28t156 -28 q22 0 51 10.5t100 45.5l70 -115q-112 -84 -205 -84q-45 0 -154 26.5t-147 26.5q-56 0 -150 -49z" />
<glyph unicode="&#xd6;" horiz-adv-x="1644" d="M84 717q0 146 51.5 281t144.5 239.5t234 166.5t309 62q167 0 308.5 -62.5t234.5 -166.5t145 -239t52 -281q0 -116 -32.5 -226.5t-96.5 -205t-152 -166t-206.5 -112t-252.5 -40.5q-135 0 -253.5 40.5t-206.5 112t-151.5 166t-95.5 205t-32 226.5zM279 717 q0 -113 38 -217.5t106.5 -185.5t172.5 -130t227 -49q122 0 226 49t172.5 130t106.5 185.5t38 217.5q0 152 -64.5 283.5t-190.5 214.5t-288 83q-123 0 -227 -48.5t-172.5 -129.5t-106.5 -185.5t-38 -217.5zM444 1726q0 60 42 103t102 43q59 0 101 -43t42 -103 q0 -59 -41.5 -100t-101.5 -41q-61 0 -102.5 41t-41.5 100zM913 1726q0 60 42 103t102 43t101.5 -43t41.5 -103q0 -59 -41.5 -100t-101.5 -41t-102 41t-42 100z" />
<glyph unicode="&#xd7;" d="M233 354l234 236l-227 229l112 113l230 -230l235 238l127 -125l-237 -237l231 -232l-115 -110l-229 229l-236 -236z" />
<glyph unicode="&#xd8;" horiz-adv-x="1644" d="M84 717q0 147 51.5 282t144.5 239t233 166t306 62q113 0 211 -28l78 178l160 -68l-76 -176q174 -97 272.5 -274t98.5 -381q0 -146 -52 -280.5t-145.5 -239.5t-235 -167.5t-309.5 -62.5q-121 0 -219 33l-67 -164l-160 66l67 164q-169 98 -263.5 273.5t-94.5 377.5z M279 717q0 -146 62 -274t173 -207l449 1044q-64 18 -140 18q-123 0 -227 -48.5t-172.5 -129.5t-106.5 -185.5t-38 -217.5zM670 158q77 -23 153 -23q122 0 226 49t172.5 130t106.5 185t38 216q0 150 -65 280.5t-181 206.5z" />
<glyph unicode="&#xd9;" horiz-adv-x="1288" d="M145 465v969h187v-969q0 -137 86.5 -233.5t224.5 -96.5t225.5 96t87.5 234v969h187v-969q0 -135 -61 -248t-176.5 -181.5t-262.5 -68.5t-262 68.5t-175.5 181.5t-60.5 248zM369 1815l86 141l510 -281l-86 -141z" />
<glyph unicode="&#xda;" horiz-adv-x="1288" d="M145 465v969h187v-969q0 -137 86.5 -233.5t224.5 -96.5t225.5 96t87.5 234v969h187v-969q0 -135 -61 -248t-176.5 -181.5t-262.5 -68.5t-262 68.5t-175.5 181.5t-60.5 248zM309 1675l510 281l84 -141l-510 -281z" />
<glyph unicode="&#xdb;" horiz-adv-x="1288" d="M145 465v969h187v-969q0 -137 86.5 -233.5t224.5 -96.5t225.5 96t87.5 234v969h187v-969q0 -135 -61 -248t-176.5 -181.5t-262.5 -68.5t-262 68.5t-175.5 181.5t-60.5 248zM268 1665l367 297l371 -297l-111 -125l-258 207l-256 -207z" />
<glyph unicode="&#xdc;" horiz-adv-x="1288" d="M145 465v969h187v-969q0 -137 86.5 -233.5t224.5 -96.5t225.5 96t87.5 234v969h187v-969q0 -135 -61 -248t-176.5 -181.5t-262.5 -68.5t-262 68.5t-175.5 181.5t-60.5 248zM264 1726q0 60 42 103t102 43q59 0 101 -43t42 -103q0 -59 -41.5 -100t-101.5 -41 q-61 0 -102.5 41t-41.5 100zM733 1726q0 60 42 103t102 43t101.5 -43t41.5 -103q0 -59 -41.5 -100t-101.5 -41t-102 41t-42 100z" />
<glyph unicode="&#xdd;" horiz-adv-x="1193" d="M20 1434h218l419 -670l338 670h205l-721 -1434h-205l287 569zM375 1665l510 281l86 -142l-510 -280z" />
<glyph unicode="&#xde;" horiz-adv-x="1024" d="M160 0v1434h168v-271h159q145 0 255 -65.5t164.5 -168t54.5 -222.5q0 -119 -54.5 -221t-164.5 -168t-255 -66h-159v-252h-168zM328 401h159q139 0 222.5 90.5t83.5 215.5t-83.5 216t-222.5 91h-159v-613z" />
<glyph unicode="&#xdf;" horiz-adv-x="1150" d="M145 0v1030q0 191 121.5 309.5t317.5 118.5q188 0 315 -108t127 -285q0 -121 -63.5 -202.5t-176.5 -114.5q124 -37 199.5 -129t75.5 -228q0 -129 -68.5 -225.5t-173.5 -143.5t-227 -47q-95 0 -164 25v156q89 -21 162 -21q121 0 207 70.5t86 187.5q0 109 -77 192t-220 83 h-88v159h82q131 0 199.5 69t68.5 169q0 106 -74.5 170.5t-187.5 64.5q-121 0 -192.5 -74.5t-71.5 -195.5v-1030h-177z" />
<glyph unicode="&#xe0;" horiz-adv-x="1222" d="M84 465q0 131 60 243t168.5 179t240.5 67q115 0 202 -50.5t132 -133.5v160h176v-930h-176v162q-45 -83 -132.5 -134t-203.5 -51q-99 0 -186.5 39.5t-148.5 106t-96.5 156t-35.5 186.5zM260 465q0 -137 87 -232.5t226 -95.5t226.5 95.5t87.5 232.5t-87.5 233.5 t-226.5 96.5t-226 -96t-87 -234zM270 1311l86 139l510 -281l-86 -139z" />
<glyph unicode="&#xe1;" horiz-adv-x="1222" d="M84 465q0 131 60 243t168.5 179t240.5 67q115 0 202 -50.5t132 -133.5v160h176v-930h-176v162q-45 -83 -132.5 -134t-203.5 -51q-99 0 -186.5 39.5t-148.5 106t-96.5 156t-35.5 186.5zM225 1169l510 281l86 -139l-510 -281zM260 465q0 -137 87 -232.5t226 -95.5 t226.5 95.5t87.5 232.5t-87.5 233.5t-226.5 96.5t-226 -96t-87 -234z" />
<glyph unicode="&#xe2;" horiz-adv-x="1222" d="M84 465q0 131 60 243t168.5 179t240.5 67q115 0 202 -50.5t132 -133.5v160h176v-930h-176v162q-45 -83 -132.5 -134t-203.5 -51q-99 0 -186.5 39.5t-148.5 106t-96.5 156t-35.5 186.5zM205 1198l366 297l371 -297l-111 -125l-258 207l-256 -207zM260 465 q0 -137 87 -232.5t226 -95.5t226.5 95.5t87.5 232.5t-87.5 233.5t-226.5 96.5t-226 -96t-87 -234z" />
<glyph unicode="&#xe3;" horiz-adv-x="1222" d="M84 465q0 131 60 243t168.5 179t240.5 67q115 0 202 -50.5t132 -133.5v160h176v-930h-176v162q-45 -83 -132.5 -134t-203.5 -51q-99 0 -186.5 39.5t-148.5 106t-96.5 156t-35.5 186.5zM213 1333q55 35 98.5 53.5t64 21.5t48.5 3q29 0 145 -27.5t156 -27.5t152 55l69 -115 q-57 -41 -103.5 -62.5t-99.5 -21.5q-48 0 -157.5 27t-145.5 27q-55 0 -149 -52zM260 465q0 -137 87 -232.5t226 -95.5t226.5 95.5t87.5 232.5t-87.5 233.5t-226.5 96.5t-226 -96t-87 -234z" />
<glyph unicode="&#xe4;" horiz-adv-x="1222" d="M84 465q0 131 60 243t168.5 179t240.5 67q115 0 202 -50.5t132 -133.5v160h176v-930h-176v162q-45 -83 -132.5 -134t-203.5 -51q-99 0 -186.5 39.5t-148.5 106t-96.5 156t-35.5 186.5zM190 1249q0 60 42 102t102 42t101.5 -42t41.5 -102t-41.5 -101.5t-101.5 -41.5 t-102 41.5t-42 101.5zM260 465q0 -137 87 -232.5t226 -95.5t226.5 95.5t87.5 232.5t-87.5 233.5t-226.5 96.5t-226 -96t-87 -234zM662 1249q0 60 41.5 102t101.5 42t101.5 -42t41.5 -102t-41.5 -101.5t-101.5 -41.5t-101.5 41.5t-41.5 101.5z" />
<glyph unicode="&#xe5;" horiz-adv-x="1222" d="M84 465q0 131 60 243t168.5 179t240.5 67q115 0 202 -50.5t132 -133.5v160h176v-930h-176v162q-45 -83 -132.5 -134t-203.5 -51q-99 0 -186.5 39.5t-148.5 106t-96.5 156t-35.5 186.5zM260 465q0 -137 87 -232.5t226 -95.5t226.5 95.5t87.5 232.5t-87.5 233.5 t-226.5 96.5t-226 -96t-87 -234zM340 1284q0 104 74 178t178 74t178 -74.5t74 -177.5t-74 -177.5t-178 -74.5t-178 74.5t-74 177.5zM473 1286q0 -50 35 -85.5t84 -35.5q51 0 86 35.5t35 85.5t-35 85.5t-86 35.5q-50 0 -84.5 -36.5t-34.5 -84.5z" />
<glyph unicode="&#xe6;" horiz-adv-x="1871" d="M84 465q0 131 60 243t168.5 179t240.5 67q115 0 202 -50.5t132 -133.5v160h176v-82q109 106 278 106q184 0 309.5 -120.5t125.5 -298.5q0 -60 -9 -117h-700q2 -133 73.5 -212t207.5 -79q180 0 237 147h180q-25 -123 -136 -210t-277 -87q-178 0 -289 107v-84h-176v162 q-45 -83 -132.5 -134t-203.5 -51q-99 0 -186.5 39.5t-148.5 106t-96.5 156t-35.5 186.5zM260 465q0 -137 87 -232.5t226 -95.5t226.5 95.5t87.5 232.5q0 139 -88.5 234.5t-227.5 95.5q-138 0 -224.5 -96.5t-86.5 -233.5zM1069 553h533q0 112 -74.5 181t-192.5 69 q-113 0 -188 -67t-78 -183z" />
<glyph unicode="&#xe7;" horiz-adv-x="1083" d="M88 465q0 96 30 183t87 156t149 109.5t207 40.5q100 0 181 -30.5t133 -82t81.5 -115t34.5 -134.5h-178q-9 91 -72.5 147t-175.5 56q-148 0 -223.5 -94.5t-75.5 -235.5q0 -68 18 -126t53.5 -104t95 -72t136.5 -26q198 0 246 182h178q-10 -70 -41.5 -130.5t-83 -108 t-128.5 -75t-171 -28.5v-122q27 41 90 41q65 0 116.5 -49.5t51.5 -127.5q0 -80 -54 -139t-140 -59q-28 0 -57 7t-63 24t-59 55t-32 92h108q8 -37 32.5 -59.5t60.5 -22.5q42 0 69 28t27 70q0 43 -26.5 69t-67.5 26q-55 0 -80 -52h-92v230q-176 34 -270.5 167.5t-94.5 309.5z " />
<glyph unicode="&#xe8;" horiz-adv-x="1075" d="M88 469q0 211 123.5 348t325.5 137q192 0 316 -119.5t124 -299.5q0 -66 -8 -117h-699q0 -128 70 -209.5t211 -81.5q180 0 237 147h181q-26 -126 -137 -211.5t-281 -85.5q-113 0 -203 40.5t-146 109.5t-85 156.5t-29 185.5zM272 553h533q0 113 -73.5 181.5t-190.5 68.5 q-113 0 -189.5 -66.5t-79.5 -183.5zM287 1311l84 139l510 -281l-84 -139z" />
<glyph unicode="&#xe9;" horiz-adv-x="1075" d="M88 469q0 211 123.5 348t325.5 137q192 0 316 -119.5t124 -299.5q0 -66 -8 -117h-699q0 -128 70 -209.5t211 -81.5q180 0 237 147h181q-26 -126 -137 -211.5t-281 -85.5q-113 0 -203 40.5t-146 109.5t-85 156.5t-29 185.5zM231 1169l510 281l84 -139l-510 -281zM272 553 h533q0 113 -73.5 181.5t-190.5 68.5q-113 0 -189.5 -66.5t-79.5 -183.5z" />
<glyph unicode="&#xea;" horiz-adv-x="1075" d="M88 469q0 211 123.5 348t325.5 137q192 0 316 -119.5t124 -299.5q0 -66 -8 -117h-699q0 -128 70 -209.5t211 -81.5q180 0 237 147h181q-26 -126 -137 -211.5t-281 -85.5q-113 0 -203 40.5t-146 109.5t-85 156.5t-29 185.5zM176 1198l367 297l370 -297l-110 -125l-258 207 l-256 -207zM272 553h533q0 113 -73.5 181.5t-190.5 68.5q-113 0 -189.5 -66.5t-79.5 -183.5z" />
<glyph unicode="&#xeb;" horiz-adv-x="1075" d="M88 469q0 211 123.5 348t325.5 137q192 0 316 -119.5t124 -299.5q0 -66 -8 -117h-699q0 -128 70 -209.5t211 -81.5q180 0 237 147h181q-26 -126 -137 -211.5t-281 -85.5q-113 0 -203 40.5t-146 109.5t-85 156.5t-29 185.5zM166 1249q0 60 41 102t100 42q60 0 103 -42.5 t43 -101.5q0 -60 -43 -101.5t-103 -41.5q-59 0 -100 41t-41 102zM272 553h533q0 113 -73.5 181.5t-190.5 68.5q-113 0 -189.5 -66.5t-79.5 -183.5zM635 1249q0 60 41.5 102t101.5 42t102 -42t42 -102t-42 -101.5t-102 -41.5t-101.5 41.5t-41.5 101.5z" />
<glyph unicode="&#xec;" horiz-adv-x="565" d="M-14 1341l84 140l510 -281l-84 -139zM195 0v930h176v-930h-176z" />
<glyph unicode="&#xed;" horiz-adv-x="565" d="M-14 1200l510 281l84 -140l-510 -280zM193 0v930h178v-930h-178z" />
<glyph unicode="&#xee;" horiz-adv-x="565" d="M-86 1198l369 297l368 -297l-110 -125l-258 207l-256 -207zM195 0v930h178v-930h-178z" />
<glyph unicode="&#xef;" horiz-adv-x="565" d="M-96 1249q0 60 41.5 102t101.5 42t103 -42t43 -102t-43 -101.5t-103 -41.5t-101.5 41.5t-41.5 101.5zM176 0v930h178v-930h-178zM375 1249q0 60 41.5 102t101.5 42t102 -42t42 -102t-42 -101.5t-102 -41.5t-101.5 41.5t-41.5 101.5z" />
<glyph unicode="&#xf0;" horiz-adv-x="1157" d="M90 465q0 132 60.5 243.5t171 178.5t247.5 67q60 0 88 -24l-94 153l-231 -122l-70 133l217 118l-135 222h215l80 -136l180 97l72 -135l-170 -91l250 -401q98 -156 98 -305q0 -131 -59.5 -241t-172.5 -177.5t-257 -67.5q-109 0 -201.5 39.5t-155 106t-98 155.5t-35.5 187z M266 465q0 -137 87.5 -232.5t226.5 -95.5t226 95.5t87 232.5q0 138 -87 234t-226 96t-226.5 -96.5t-87.5 -233.5z" />
<glyph unicode="&#xf1;" horiz-adv-x="1157" d="M160 0v930h178v-164q43 88 127.5 138t202.5 50q184 0 276 -123q72 -99 72 -282v-549h-178v494q0 138 -56.5 220.5t-177.5 82.5q-129 0 -197.5 -92t-68.5 -226v-479h-178zM213 1333q55 35 98.5 53.5t64 21.5t48.5 3q29 0 145 -27.5t156 -27.5t152 55l71 -115 q-38 -27 -62.5 -41.5t-64.5 -28.5t-78 -14q-47 0 -156.5 27t-146.5 27q-51 0 -149 -52z" />
<glyph unicode="&#xf2;" horiz-adv-x="1146" d="M84 465q0 132 59.5 243t172.5 178.5t257 67.5q143 0 256.5 -67.5t173.5 -178.5t60 -243q0 -98 -35.5 -187t-98 -155.5t-155 -106t-201.5 -39.5q-145 0 -258 67.5t-172 178t-59 242.5zM260 465q0 -137 87 -232.5t226 -95.5t226.5 95.5t87.5 232.5t-87.5 233.5t-226.5 96.5 t-226 -96t-87 -234zM291 1311l84 139l510 -281l-84 -139z" />
<glyph unicode="&#xf3;" horiz-adv-x="1146" d="M84 465q0 132 59.5 243t172.5 178.5t257 67.5q143 0 256.5 -67.5t173.5 -178.5t60 -243q0 -98 -35.5 -187t-98 -155.5t-155 -106t-201.5 -39.5q-145 0 -258 67.5t-172 178t-59 242.5zM231 1169l510 281l84 -139l-510 -281zM260 465q0 -137 87 -232.5t226 -95.5 t226.5 95.5t87.5 232.5t-87.5 233.5t-226.5 96.5t-226 -96t-87 -234z" />
<glyph unicode="&#xf4;" horiz-adv-x="1146" d="M84 465q0 132 59.5 243t172.5 178.5t257 67.5q143 0 256.5 -67.5t173.5 -178.5t60 -243q0 -98 -35.5 -187t-98 -155.5t-155 -106t-201.5 -39.5q-145 0 -258 67.5t-172 178t-59 242.5zM207 1198l366 297l371 -297l-110 -125l-259 207l-256 -205zM260 465q0 -137 87 -232.5 t226 -95.5t226.5 95.5t87.5 232.5t-87.5 233.5t-226.5 96.5t-226 -96t-87 -234z" />
<glyph unicode="&#xf5;" horiz-adv-x="1146" d="M84 465q0 132 59.5 243t172.5 178.5t257 67.5q143 0 256.5 -67.5t173.5 -178.5t60 -243q0 -98 -35.5 -187t-98 -155.5t-155 -106t-201.5 -39.5q-145 0 -258 67.5t-172 178t-59 242.5zM193 1294q56 35 99 53.5t63 21.5t48 3q29 0 145.5 -27.5t156.5 -27.5q39 0 151 55 l72 -115q-37 -26 -62 -41t-64.5 -28.5t-76.5 -13.5q-47 0 -157 26.5t-146 26.5q-54 0 -152 -49zM260 465q0 -137 87 -232.5t226 -95.5t226.5 95.5t87.5 232.5t-87.5 233.5t-226.5 96.5t-226 -96t-87 -234z" />
<glyph unicode="&#xf6;" horiz-adv-x="1146" d="M84 465q0 132 59.5 243t172.5 178.5t257 67.5q143 0 256.5 -67.5t173.5 -178.5t60 -243q0 -98 -35.5 -187t-98 -155.5t-155 -106t-201.5 -39.5q-145 0 -258 67.5t-172 178t-59 242.5zM195 1249q0 60 41.5 102t101.5 42t101.5 -42t41.5 -102t-41.5 -101.5t-101.5 -41.5 t-101.5 41.5t-41.5 101.5zM260 465q0 -137 87 -232.5t226 -95.5t226.5 95.5t87.5 232.5t-87.5 233.5t-226.5 96.5t-226 -96t-87 -234zM666 1249q0 60 41 102t100 42q60 0 102.5 -42t42.5 -102t-42.5 -101.5t-102.5 -41.5q-59 0 -100 41.5t-41 101.5z" />
<glyph unicode="&#xf7;" d="M176 401v158h828v-158h-828zM446 174q0 60 42 101.5t102 41.5t101.5 -41.5t41.5 -101.5t-41.5 -101.5t-101.5 -41.5t-102 41.5t-42 101.5zM446 805q0 60 42 101.5t102 41.5t101.5 -41.5t41.5 -101.5t-41.5 -101.5t-101.5 -41.5t-102 41.5t-42 101.5z" />
<glyph unicode="&#xf8;" horiz-adv-x="1146" d="M84 465q0 132 59.5 243t171 178.5t252.5 67.5q45 0 113 -12l65 154l152 -66l-63 -147q107 -64 168 -175.5t61 -242.5t-60 -242t-173 -178.5t-255 -67.5q-61 0 -124 17l-68 -158l-152 66l66 153q-100 66 -156.5 174.5t-56.5 235.5zM260 465q0 -74 28 -139t79 -109l247 574 q-12 4 -43 4q-138 0 -224.5 -96.5t-86.5 -233.5zM516 143q24 -6 57 -6q139 0 226.5 95.5t87.5 230.5q0 80 -32.5 147.5t-90.5 110.5z" />
<glyph unicode="&#xf9;" horiz-adv-x="1157" d="M141 381v549h178v-492q0 -139 55.5 -221t176.5 -82q87 0 149.5 45t90.5 115.5t28 157.5v477h178v-930h-178v166q-43 -87 -128.5 -138t-203.5 -51q-186 0 -276 121q-70 96 -70 283zM283 1311l86 139l510 -281l-86 -139z" />
<glyph unicode="&#xfa;" horiz-adv-x="1157" d="M141 381v549h178v-492q0 -139 55.5 -221t176.5 -82q87 0 149.5 45t90.5 115.5t28 157.5v477h178v-930h-178v166q-43 -87 -128.5 -138t-203.5 -51q-186 0 -276 121q-70 96 -70 283zM274 1169l510 281l84 -139l-510 -281z" />
<glyph unicode="&#xfb;" horiz-adv-x="1157" d="M141 381v549h178v-492q0 -139 55.5 -221t176.5 -82q87 0 149.5 45t90.5 115.5t28 157.5v477h178v-930h-178v166q-43 -87 -128.5 -138t-203.5 -51q-186 0 -276 121q-70 96 -70 283zM199 1198l366 297l371 -297l-111 -125l-258 207l-256 -207z" />
<glyph unicode="&#xfc;" horiz-adv-x="1157" d="M141 381v549h178v-492q0 -139 55.5 -221t176.5 -82q87 0 149.5 45t90.5 115.5t28 157.5v477h178v-930h-178v166q-43 -87 -128.5 -138t-203.5 -51q-186 0 -276 121q-70 96 -70 283zM193 1249q0 60 41.5 102t101.5 42t101.5 -42t41.5 -102t-41.5 -101.5t-101.5 -41.5 t-101.5 41.5t-41.5 101.5zM664 1249q0 60 41 102t100 42q60 0 102.5 -42t42.5 -102t-42.5 -101.5t-102.5 -41.5q-59 0 -100 41.5t-41 101.5z" />
<glyph unicode="&#xfd;" horiz-adv-x="1173" d="M143 -121h174q7 -246 263 -246q133 0 197.5 70.5t64.5 230.5v232q-94 -189 -332 -189q-188 0 -277 119q-38 52 -53.5 119.5t-15.5 171.5v543h178v-488q0 -307 231 -307q133 0 201 91t68 227v477h178v-996q0 -238 -115.5 -348t-322.5 -110q-112 0 -196.5 30.5t-135.5 86 t-77.5 127t-29.5 159.5zM295 1169l510 281l86 -139l-510 -281z" />
<glyph unicode="&#xfe;" horiz-adv-x="1216" d="M160 -504v1938h178v-664q45 83 131.5 133.5t202.5 50.5q132 0 240.5 -67t168.5 -179t60 -243q0 -97 -35.5 -186t-96.5 -155.5t-149 -106.5t-188 -40q-116 0 -202.5 51t-131.5 134v-666h-178zM338 465q0 -138 87.5 -233t225.5 -95q139 0 225.5 96t86.5 232t-87 233 t-225 97t-225.5 -96t-87.5 -234z" />
<glyph unicode="&#xff;" horiz-adv-x="1173" d="M143 -121h174q7 -246 263 -246q133 0 197.5 70.5t64.5 230.5v232q-94 -189 -332 -189q-188 0 -277 119q-38 52 -53.5 119.5t-15.5 171.5v543h178v-488q0 -307 231 -307q133 0 201 91t68 227v477h178v-996q0 -238 -115.5 -348t-322.5 -110q-112 0 -196.5 30.5t-135.5 86 t-77.5 127t-29.5 159.5zM233 1247q0 58 40.5 98.5t97.5 40.5t97 -40.5t40 -98.5q0 -57 -40 -96t-97 -39t-97.5 39t-40.5 96zM705 1247q0 59 39 99t96 40q58 0 98.5 -40t40.5 -99q0 -57 -40 -96t-99 -39q-57 0 -96 39t-39 96z" />
<glyph unicode="&#x152;" horiz-adv-x="2320" d="M84 715q0 146 51.5 280.5t144.5 239t233 167t306 62.5q179 0 318 -70t231 -192v232h803v-168h-617v-469h617v-168h-617v-461h617v-168h-803v225q-92 -122 -231 -192t-318 -70q-133 0 -250.5 40.5t-205 112t-151 166.5t-96 205.5t-32.5 227.5zM279 715q0 -113 38 -218 t106.5 -186t172.5 -129.5t227 -48.5q162 0 288 83.5t190.5 215t64.5 283.5q0 151 -64.5 282t-190.5 214t-288 83q-123 0 -227 -48.5t-172.5 -129t-106.5 -184.5t-38 -217z" />
<glyph unicode="&#x153;" horiz-adv-x="1871" d="M84 465q0 132 59.5 243t172 178.5t255.5 67.5q128 0 230 -54t166 -148q56 97 154 149.5t218 52.5q187 0 312 -120t125 -299q0 -60 -9 -117h-700q2 -131 73 -211t210 -80q178 0 235 147h180q-26 -126 -137 -211.5t-278 -85.5q-131 0 -228.5 54.5t-152.5 148.5 q-62 -94 -165 -148.5t-233 -54.5q-108 0 -200 39.5t-154.5 106t-97.5 155.5t-35 187zM260 465q0 -137 87 -232.5t226 -95.5q137 0 225.5 94.5t88.5 233.5t-88.5 234.5t-227.5 95.5q-138 0 -224.5 -96.5t-86.5 -233.5zM1069 553h533q0 113 -74 181.5t-191 68.5 q-113 0 -189 -66.5t-79 -183.5z" />
<glyph unicode="&#x178;" horiz-adv-x="1193" d="M20 1434h218l419 -670l338 670h205l-721 -1434h-205l287 569zM276 1726q0 59 39.5 99.5t96.5 40.5q58 0 98.5 -40.5t40.5 -99.5q0 -57 -40 -96t-99 -39q-57 0 -96.5 39t-39.5 96zM745 1726q0 58 40.5 99t97.5 41q58 0 97.5 -40.5t39.5 -99.5q0 -57 -39.5 -96t-97.5 -39 q-57 0 -97.5 39t-40.5 96z" />
<glyph unicode="&#x2c6;" horiz-adv-x="960" d="M106 1427l369 297l369 -297l-111 -124l-258 206l-256 -204z" />
<glyph unicode="&#x2dc;" horiz-adv-x="1019" d="M152 1356q56 35 99 53.5t63 21.5t48 3q29 0 145.5 -28t156.5 -28q22 0 51 10.5t100 45.5l70 -115q-57 -41 -103.5 -62.5t-99.5 -21.5q-48 0 -157.5 26.5t-145.5 26.5q-56 0 -150 -49z" />
<glyph unicode="&#x2000;" horiz-adv-x="999" />
<glyph unicode="&#x2001;" horiz-adv-x="1999" />
<glyph unicode="&#x2002;" horiz-adv-x="999" />
<glyph unicode="&#x2003;" horiz-adv-x="1999" />
<glyph unicode="&#x2004;" horiz-adv-x="666" />
<glyph unicode="&#x2005;" horiz-adv-x="499" />
<glyph unicode="&#x2006;" horiz-adv-x="333" />
<glyph unicode="&#x2007;" horiz-adv-x="333" />
<glyph unicode="&#x2008;" horiz-adv-x="249" />
<glyph unicode="&#x2009;" horiz-adv-x="399" />
<glyph unicode="&#x200a;" horiz-adv-x="111" />
<glyph unicode="&#x2010;" horiz-adv-x="602" d="M61 504v160h480v-160h-480z" />
<glyph unicode="&#x2011;" horiz-adv-x="602" d="M61 504v160h480v-160h-480z" />
<glyph unicode="&#x2012;" horiz-adv-x="602" d="M61 504v160h480v-160h-480z" />
<glyph unicode="&#x2013;" horiz-adv-x="1030" d="M102 504v160h826v-160h-826z" />
<glyph unicode="&#x2014;" horiz-adv-x="2060" d="M102 504v160h1856v-160h-1856z" />
<glyph unicode="&#x2018;" horiz-adv-x="550" d="M123 1239q0 135 77 206t218 71v-86q-102 0 -144 -62q-28 -43 -28 -86q14 14 51 14q57 0 94 -39t37 -96q0 -59 -40 -99t-103 -40q-74 0 -118 56.5t-44 160.5z" />
<glyph unicode="&#x2019;" horiz-adv-x="550" d="M123 1376q0 59 40.5 99.5t104.5 40.5q73 0 116.5 -57.5t43.5 -162.5q0 -138 -76.5 -206t-216.5 -68v84q57 0 88 16.5t53 46.5q29 39 29 86q-11 -14 -49 -14q-57 0 -95 39t-38 96z" />
<glyph unicode="&#x201a;" horiz-adv-x="550" d="M123 113q0 60 40 100.5t105 40.5q73 0 116.5 -57.5t43.5 -161.5q0 -137 -78 -207t-215 -70v86q60 0 91 17t50 45q29 42 29 86q-11 -15 -49 -15q-57 0 -95 39.5t-38 96.5z" />
<glyph unicode="&#x201c;" horiz-adv-x="909" d="M123 1239q0 135 77 206t218 71v-86q-102 0 -144 -62q-28 -43 -28 -86q14 14 51 14q57 0 94 -39t37 -96q0 -59 -40 -99t-103 -40q-74 0 -118 56.5t-44 160.5zM481 1239q0 137 78 207t215 70v-86q-101 0 -141 -62q-29 -42 -29 -86q10 14 49 14q57 0 95 -39t38 -96 q0 -60 -40 -99.5t-105 -39.5q-73 0 -116.5 56.5t-43.5 160.5z" />
<glyph unicode="&#x201d;" horiz-adv-x="909" d="M123 1376q0 59 40.5 99.5t104.5 40.5q73 0 116.5 -57.5t43.5 -162.5q0 -138 -76.5 -206t-216.5 -68v84q57 0 88 16.5t53 46.5q29 39 29 86q-11 -14 -49 -14q-57 0 -95 39t-38 96zM481 1376q0 58 40.5 99t105.5 41q72 0 115.5 -57.5t43.5 -162.5q0 -137 -76.5 -205.5 t-217.5 -68.5v84q99 0 141 63q31 47 31 86q-14 -14 -52 -14q-57 0 -94 39t-37 96z" />
<glyph unicode="&#x201e;" horiz-adv-x="909" d="M123 113q0 60 40 100.5t105 40.5q73 0 116.5 -57.5t43.5 -161.5q0 -137 -78 -207t-215 -70v86q60 0 91 17t50 45q29 42 29 86q-11 -15 -49 -15q-57 0 -95 39.5t-38 96.5zM481 113q0 60 40.5 100.5t103.5 40.5q73 0 117 -57.5t44 -161.5q0 -135 -76.5 -206t-217.5 -71v86 q101 0 141 62q31 44 31 86q-15 -15 -52 -15q-57 0 -94 39t-37 97z" />
<glyph unicode="&#x2022;" horiz-adv-x="712" d="M119 639q0 100 69.5 170t167.5 70q100 0 170 -70t70 -170q0 -98 -70 -168t-170 -70q-98 0 -167.5 70t-69.5 168z" />
<glyph unicode="&#x2026;" horiz-adv-x="1923" d="M119 133q0 60 41 101.5t100 41.5q60 0 103 -42t43 -101q0 -60 -43 -101.5t-103 -41.5q-59 0 -100 41t-41 102zM819 131q0 60 41.5 101.5t100.5 41.5q60 0 102.5 -41.5t42.5 -101.5t-42.5 -101.5t-102.5 -41.5q-59 0 -100.5 41.5t-41.5 101.5zM1520 129q0 60 41 101.5 t100 41.5q60 0 102.5 -41.5t42.5 -101.5t-42.5 -101.5t-102.5 -41.5q-59 0 -100 41.5t-41 101.5z" />
<glyph unicode="&#x202f;" horiz-adv-x="399" />
<glyph unicode="&#x2039;" horiz-adv-x="565" d="M82 543v108l401 342v-176l-258 -221l258 -221v-174z" />
<glyph unicode="&#x203a;" horiz-adv-x="565" d="M82 201v174l258 221l-258 221v176l401 -342v-108z" />
<glyph unicode="&#x205f;" horiz-adv-x="499" />
<glyph unicode="&#x20ac;" horiz-adv-x="1214" d="M25 487l32 138h97v182h-127l34 135h93v23q0 132 59 243t172 179.5t258 68.5q137 0 246.5 -61t172 -162t71.5 -225h-189q-11 119 -93.5 198.5t-207.5 79.5q-135 0 -219 -93.5t-84 -227.5v-23h469l-35 -135h-434v-182h465l-33 -138h-432v-20q0 -134 84 -228t219 -94t220 94 t85 228h187q0 -132 -60 -243.5t-174 -179t-258 -67.5q-145 0 -258 67.5t-172 178.5t-59 244v20h-129z" />
<glyph unicode="&#x2122;" horiz-adv-x="1660" d="M82 1331v103h541v-103h-215v-731h-113v731h-213zM778 600v834h178l228 -619l227 619h168v-834h-111v660l-243 -660h-82l-252 684v-684h-113z" />
<glyph unicode="&#xe000;" horiz-adv-x="931" d="M0 0v932h932v-932h-932z" />
</font>
</defs>
</svg>
