<?xml version="1.0" encoding="UTF-8" standalone="no"?>
<svg width="25px" height="25px" viewBox="0 0 25 25" version="1.1" xmlns="http://www.w3.org/2000/svg" xmlns:xlink="http://www.w3.org/1999/xlink" xmlns:sketch="http://www.bohemiancoding.com/sketch/ns">
    <!-- Generator: Sketch 3.0.1 (7597) - http://www.bohemiancoding.com/sketch -->
    <title>phone-icon</title>
    <description>Created with Sketch.</description>
    <defs></defs>
    <g id="0-Style-Guide" stroke="none" stroke-width="1" fill="none" fill-rule="evenodd" sketch:type="MSPage">
        <g id="phone-icon" sketch:type="MSArtboardGroup" fill="#979797">
            <g id="iPhone-Icon" sketch:type="MSLayerGroup" transform="translate(6.000000, 1.000000)">
                <path d="M1.10526316,23 L12.8947368,23 C13.5038596,23 14,22.5160417 14,21.921875 L14,1.078125 C14,0.483958333 13.5038596,0 12.8947368,0 L1.10526316,0 C0.496140351,0 0,0.483958333 0,1.078125 L0,21.921875 C0,22.5160417 0.496140351,23 1.10526316,23 L1.10526316,23 Z M1,1.35 C1,1.1568 1.15811765,1 1.35294118,1 L12.6470588,1 C12.8418824,1 13,1.1568 13,1.35 L13,21.65 C13,21.8432 12.8418824,22 12.6470588,22 L1.35294118,22 C1.15811765,22 1,21.8432 1,21.65 L1,1.35 L1,1.35 Z" id="Fill-1" sketch:type="MSShapeGroup"></path>
                <path d="M2.33333333,18 L11.6666667,18 C11.8506667,18 12,17.8574545 12,17.6818182 L12,4.31818182 C12,4.14254545 11.8506667,4 11.6666667,4 L2.33333333,4 C2.14933333,4 2,4.14254545 2,4.31818182 L2,17.6818182 C2,17.8574545 2.14933333,18 2.33333333,18 L2.33333333,18 Z M3,5 L11,5 L11,17 L3,17 L3,5 Z" id="Fill-2" sketch:type="MSShapeGroup"></path>
                <path d="M8,20 C8,20.5086641 7.61958116,20.9290167 7.12791831,20.9918829 C7.08603083,20.9972388 7.04333591,21 7,21 C6.448,21 6,20.552 6,20 C6,19.448 6.448,19 7,19 C7.552,19 8,19.448 8,20 Z" id="Fill-3" sketch:type="MSShapeGroup"></path>
                <path d="M5.4,2.75 L8.6,2.75 C8.8208,2.75 9,2.582 9,2.375 C9,2.168 8.8208,2 8.6,2 L5.4,2 C5.1792,2 5,2.168 5,2.375 C5,2.582 5.1792,2.75 5.4,2.75" id="Fill-4" sketch:type="MSShapeGroup"></path>
            </g>
        </g>
    </g>
</svg>