<?xml version="1.0" encoding="utf-8"?>
<!-- Generator: Adobe Illustrator 18.1.0, SVG Export Plug-In . SVG Version: 6.00 Build 0)  -->
<!DOCTYPE svg PUBLIC "-//W3C//DTD SVG 1.1//EN" "http://www.w3.org/Graphics/SVG/1.1/DTD/svg11.dtd">
<svg version="1.1" id="Calque_1" xmlns="http://www.w3.org/2000/svg" xmlns:xlink="http://www.w3.org/1999/xlink" x="0px" y="0px"
	 viewBox="0 0 148 84" enable-background="new 0 0 148 84" xml:space="preserve">
<g>
	<path fill="#FFFFFF" d="M22.1,48.8v2.8h-9V34.8h2.8v14H22.1z"/>
	<path fill="#FFFFFF" d="M40.5,43.2c0,4.6-3.7,8.4-8.4,8.4c-4.6,0-8.4-3.7-8.4-8.4c0-4.6,3.7-8.4,8.4-8.4
		C36.8,34.8,40.5,38.6,40.5,43.2z M37.7,43.2c0-3.1-2.5-5.6-5.6-5.6c-3.1,0-5.6,2.5-5.6,5.6c0,3.1,2.5,5.6,5.6,5.6
		C35.2,48.8,37.7,46.3,37.7,43.2z"/>
	<path fill="#FFFFFF" d="M58.4,41.8v9.8h-2.8v-1.1c-1.2,0.7-2.7,1.1-4.2,1.1c-4.6,0-8.4-3.8-8.4-8.4c0-4.6,3.8-8.4,8.4-8.4
		c2.3,0,4.4,0.9,5.9,2.5l-2,2c-1-1-2.4-1.6-4-1.6c-3.1,0-5.6,2.5-5.6,5.6c0,3.1,2.5,5.6,5.6,5.6c1.7,0,3.2-0.7,4.2-1.9v-2.3h-4.9
		v-2.8H58.4z"/>
	<path fill="#FFFFFF" d="M77.5,43.2c0,4.6-3.7,8.4-8.4,8.4c-4.6,0-8.4-3.7-8.4-8.4c0-4.6,3.7-8.4,8.4-8.4
		C73.8,34.8,77.5,38.6,77.5,43.2z M74.7,43.2c0-3.1-2.5-5.6-5.6-5.6c-3.1,0-5.6,2.5-5.6,5.6c0,3.1,2.5,5.6,5.6,5.6
		C72.2,48.8,74.7,46.3,74.7,43.2z"/>
	<path fill="#FFFFFF" d="M89.5,37.6h-4.2v14h-2.8v-14h-4.2v-2.8h11.2V37.6z"/>
	<path fill="#FFFFFF" d="M108.3,34.8l-6.3,8.9v7.9h-2.8v-7.9l-6.3-8.9h3.4l4.3,6l4.3-6H108.3z"/>
	<path fill="#FFFFFF" d="M122.9,39.7c0,4.9-5.6,4.9-5.6,4.9h-2.8v7h-2.8V34.8h5.6C117.3,34.8,122.9,34.8,122.9,39.7z M120.1,39.7
		c0-2.1-2.8-2.1-2.8-2.1h-2.8v4.2h2.8C117.3,41.8,120.1,41.8,120.1,39.7z"/>
	<path fill="#FFFFFF" d="M129.1,37.6v4.2h8.4v2.8h-8.4v4.2h8.4v2.8h-11.2V34.8h11.2v2.8H129.1z"/>
</g>
</svg>
