<?xml version="1.0" encoding="UTF-8" standalone="no"?>
<svg width="255px" height="48px" viewBox="0 0 255 48" version="1.1" xmlns="http://www.w3.org/2000/svg" xmlns:xlink="http://www.w3.org/1999/xlink">
    <!-- Generator: Sketch 41.2 (35397) - http://www.bohemiancoding.com/sketch -->
    <title>Group</title>
    <desc>Created with Sketch.</desc>
    <defs></defs>
    <g id="Page-1" stroke="none" stroke-width="1" fill="none" fill-rule="evenodd">
        <g id="Group" fill="#FFFFFF">
            <path d="M188.457031,42.859375 C188.86719,42.859375 189.186197,42.8024094 189.414062,42.6884766 C189.772137,42.5094392 189.951172,42.1871768 189.951172,41.7216797 C189.951172,41.2529273 189.760744,40.9371753 189.379883,40.7744141 C189.165038,40.6832678 188.846031,40.6376953 188.422852,40.6376953 L186.689453,40.6376953 L186.689453,42.859375 L188.457031,42.859375 Z M188.78418,46.1699219 C189.379886,46.1699219 189.804686,45.9973976 190.058594,45.6523438 C190.2181,45.4342437 190.297852,45.1705745 190.297852,44.8613281 C190.297852,44.3404922 190.065106,43.985678 189.599609,43.796875 C189.352212,43.695963 189.025067,43.6455078 188.618164,43.6455078 L186.689453,43.6455078 L186.689453,46.1699219 L188.78418,46.1699219 Z M185.737305,39.8271484 L188.818359,39.8271484 C189.658207,39.8271484 190.255532,40.077797 190.610352,40.5791016 C190.818686,40.875327 190.922852,41.2171205 190.922852,41.6044922 C190.922852,42.0569684 190.794272,42.4280584 190.537109,42.7177734 C190.403645,42.870769 190.21159,43.0107416 189.960938,43.1376953 C190.328778,43.27767 190.60384,43.435546 190.786133,43.6113281 C191.1084,43.9238297 191.269531,44.3551405 191.269531,44.9052734 C191.269531,45.3675153 191.124676,45.7858054 190.834961,46.1601562 C190.402016,46.7200549 189.713546,47 188.769531,47 L185.737305,47 L185.737305,39.8271484 Z M196.113281,44.0605469 L195.024414,40.8916016 L193.867188,44.0605469 L196.113281,44.0605469 Z M194.516602,39.8271484 L195.615234,39.8271484 L198.217773,47 L197.15332,47 L196.425781,44.8515625 L193.588867,44.8515625 L192.8125,47 L191.816406,47 L194.516602,39.8271484 Z M199.101562,39.8271484 L200.249023,39.8271484 L203.87207,45.6376953 L203.87207,39.8271484 L204.794922,39.8271484 L204.794922,47 L203.706055,47 L200.029297,41.1943359 L200.029297,47 L199.101562,47 L199.101562,39.8271484 Z M211.171875,40.0322266 C211.884769,40.4065774 212.320963,41.0624953 212.480469,42 L211.518555,42 C211.401367,41.4759088 211.158856,41.0942395 210.791016,40.8549805 C210.423175,40.6157215 209.959313,40.4960938 209.399414,40.4960938 C208.735348,40.4960938 208.176272,40.7451147 207.722168,41.2431641 C207.268064,41.7412134 207.041016,42.4833935 207.041016,43.4697266 C207.041016,44.3225954 207.228188,45.0167616 207.602539,45.5522461 C207.97689,46.0877305 208.587235,46.3554688 209.433594,46.3554688 C210.081383,46.3554688 210.617674,46.1674823 211.04248,45.7915039 C211.467287,45.4155255 211.68457,44.8076214 211.694336,43.9677734 L209.448242,43.9677734 L209.448242,43.1621094 L212.597656,43.1621094 L212.597656,47 L211.972656,47 L211.738281,46.0771484 C211.409504,46.4384784 211.118165,46.6891269 210.864258,46.8291016 C210.437823,47.0699882 209.895837,47.1904297 209.238281,47.1904297 C208.388668,47.1904297 207.657881,46.9153673 207.045898,46.3652344 C206.378577,45.6751268 206.044922,44.7278706 206.044922,43.5234375 C206.044922,42.3222596 206.370439,41.3668655 207.021484,40.6572266 C207.639977,39.9801398 208.44075,39.6416016 209.423828,39.6416016 C210.09766,39.6416016 210.680336,39.7718086 211.171875,40.0322266 Z M214.101562,39.8271484 L215.073242,39.8271484 L215.073242,46.1455078 L218.706055,46.1455078 L218.706055,47 L214.101562,47 L214.101562,39.8271484 Z M223.344727,44.0605469 L222.255859,40.8916016 L221.098633,44.0605469 L223.344727,44.0605469 Z M221.748047,39.8271484 L222.84668,39.8271484 L225.449219,47 L224.384766,47 L223.657227,44.8515625 L220.820312,44.8515625 L220.043945,47 L219.047852,47 L221.748047,39.8271484 Z M229.086914,46.1699219 C229.415692,46.1699219 229.685871,46.1357425 229.897461,46.0673828 C230.275067,45.9404291 230.584309,45.6962909 230.825195,45.3349609 C231.017254,45.0452459 231.155599,44.6741559 231.240234,44.2216797 C231.289063,43.951496 231.313477,43.7008475 231.313477,43.4697266 C231.313477,42.5810502 231.136883,41.890953 230.783691,41.3994141 C230.4305,40.9078751 229.861658,40.6621094 229.077148,40.6621094 L227.353516,40.6621094 L227.353516,46.1699219 L229.086914,46.1699219 Z M226.376953,39.8271484 L229.282227,39.8271484 C230.26856,39.8271484 231.033526,40.1770798 231.577148,40.8769531 C232.062177,41.5084667 232.304688,42.3173779 232.304688,43.3037109 C232.304688,44.0654335 232.16146,44.7539032 231.875,45.3691406 C231.37044,46.4563856 230.502936,47 229.272461,47 L226.376953,47 L226.376953,39.8271484 Z M233.647461,39.8271484 L238.876953,39.8271484 L238.876953,40.7060547 L234.594727,40.7060547 L234.594727,42.8837891 L238.554688,42.8837891 L238.554688,43.7138672 L234.594727,43.7138672 L234.594727,46.1455078 L238.950195,46.1455078 L238.950195,47 L233.647461,47 L233.647461,39.8271484 Z M240.859375,44.6855469 C240.882162,45.09245 240.978189,45.4228503 241.147461,45.6767578 C241.469728,46.1520206 242.037756,46.3896484 242.851562,46.3896484 C243.216148,46.3896484 243.548176,46.3375656 243.847656,46.2333984 C244.427086,46.0315745 244.716797,45.67025 244.716797,45.1494141 C244.716797,44.7587871 244.594728,44.4804696 244.350586,44.3144531 C244.103189,44.1516919 243.715823,44.0100917 243.188477,43.8896484 L242.216797,43.6699219 C241.582028,43.526692 241.132814,43.368816 240.869141,43.1962891 C240.413409,42.8968084 240.185547,42.4492217 240.185547,41.8535156 C240.185547,41.2089812 240.408526,40.6800151 240.854492,40.2666016 C241.300458,39.853188 241.931962,39.6464844 242.749023,39.6464844 C243.50098,39.6464844 244.139809,39.8279604 244.665527,40.190918 C245.191246,40.5538755 245.454102,41.1341106 245.454102,41.9316406 L244.541016,41.9316406 C244.492187,41.5475241 244.388022,41.2529307 244.228516,41.0478516 C243.93229,40.6735007 243.429366,40.4863281 242.719727,40.4863281 C242.146807,40.4863281 241.735027,40.6067696 241.484375,40.8476562 C241.233723,41.0885429 241.108398,41.368488 241.108398,41.6875 C241.108398,42.0390643 241.254881,42.2962231 241.547852,42.4589844 C241.73991,42.5631516 242.174476,42.6933586 242.851562,42.8496094 L243.857422,43.0791016 C244.34245,43.1897792 244.716796,43.3411449 244.980469,43.5332031 C245.4362,43.8684913 245.664062,44.35514 245.664062,44.9931641 C245.664062,45.7874389 245.375166,46.355467 244.797363,46.6972656 C244.219561,47.0390642 243.548181,47.2099609 242.783203,47.2099609 C241.891272,47.2099609 241.193036,46.9820986 240.688477,46.5263672 C240.183917,46.073891 239.936523,45.4602903 239.946289,44.6855469 L240.859375,44.6855469 Z M246.918945,39.8271484 L247.900391,39.8271484 L247.900391,42.7910156 L251.630859,42.7910156 L251.630859,39.8271484 L252.612305,39.8271484 L252.612305,47 L251.630859,47 L251.630859,43.6455078 L247.900391,43.6455078 L247.900391,47 L246.918945,47 L246.918945,39.8271484 Z" id="BANGLADESH"></path>
            <polygon id="Shape" points="23 2.6 14.4 14.2 5.8 2.6 0 2.6 0 31.4 5.8 31.4 5.8 11.4 14.4 23 23 11.4 23 31.4 28.8 31.4 28.8 2.6"></polygon>
            <path d="M31,17 C31,15 31.4,13.1 32.1,11.4 C32.9,9.6 33.9,8.1 35.2,6.8 C36.5,5.5 38,4.5 39.8,3.7 C41.6,2.9 43.4,2.6 45.4,2.6 C47.4,2.6 49.3,3 51,3.7 C52.8,4.5 54.3,5.5 55.6,6.8 C56.9,8.1 57.9,9.6 58.7,11.4 C59.5,13.2 59.8,15 59.8,17 C59.8,19 59.4,20.9 58.7,22.6 C57.9,24.3 56.9,25.9 55.6,27.2 C54.3,28.5 52.8,29.5 51,30.3 C49.2,31.1 47.4,31.4 45.4,31.4 C43.4,31.4 41.5,31 39.8,30.3 C38,29.5 36.5,28.5 35.2,27.2 C33.9,25.9 32.9,24.4 32.1,22.6 C31.4,20.8 31,19 31,17 M36.8,17 C36.8,18.2 37,19.3 37.5,20.4 C38,21.4 38.6,22.4 39.4,23.1 C40.2,23.9 41.1,24.5 42.1,25 C43.1,25.5 44.3,25.7 45.5,25.7 C46.7,25.7 47.8,25.5 48.8,25 C49.9,24.5 50.8,23.9 51.6,23.1 C52.4,22.3 53,21.4 53.5,20.4 C54,19.4 54.2,18.2 54.2,17 C54.2,15.8 54,14.7 53.5,13.7 C53,12.6 52.4,11.7 51.6,10.9 C50.8,10.1 49.9,9.5 48.8,9 C47.7,8.5 46.6,8.3 45.5,8.3 C44.3,8.3 43.2,8.5 42.1,9 C41.1,9.5 40.1,10.1 39.4,10.9 C38.6,11.7 38,12.6 37.5,13.7 C37,14.7 36.8,15.8 36.8,17" id="Shape"></path>
            <polygon id="Shape" points="61.9 2.6 67.5 2.6 82.1 21.8 82.1 2.6 87.8 2.6 87.8 31.4 82 31.4 67.7 12.3 67.7 31.4 61.9 31.4"></polygon>
            <path d="M103.3,23.5 C103.3,22.6 103,21.9 102.4,21.4 C101.8,20.9 101,20.4 100.1,19.9 C99.2,19.5 98.2,19 97.2,18.6 C96.1,18.2 95.2,17.7 94.3,17.1 C93.4,16.5 92.6,15.7 92,14.8 C91.4,13.9 91.1,12.7 91.1,11.3 C91.1,10.1 91.3,9 91.8,8 C92.3,7 92.9,6.1 93.6,5.3 C94.4,4.5 95.3,3.9 96.3,3.4 C97.3,2.9 98.5,2.7 99.6,2.7 L100,2.7 C101.1,2.7 102.2,3 103.2,3.5 C104.2,4 105.1,4.6 105.8,5.4 C106.6,6.2 107.2,7.1 107.6,8.1 C108,9.1 108.3,10.2 108.3,11.4 L102.6,11.4 L102.6,11.3 C102.6,10.9 102.5,10.6 102.3,10.2 C102.2,9.8 102,9.5 101.7,9.2 C101.5,8.9 101.2,8.7 100.9,8.5 C100.6,8.3 100.3,8.2 99.9,8.1 L99.6,8.1 C98.8,8.1 98.1,8.3 97.6,8.8 C97,9.2 96.8,9.9 96.8,10.7 C96.8,11.3 97.1,11.9 97.7,12.3 C98.3,12.8 99.1,13.2 100,13.6 C100.9,14 101.9,14.5 102.9,14.9 C104,15.4 104.9,16 105.8,16.7 C106.7,17.4 107.5,18.2 108.1,19.2 C108.7,20.2 109,21.4 109,22.8 C109,24 108.8,25.1 108.3,26.1 C107.8,27.1 107.2,28.1 106.4,28.8 C105.6,29.6 104.7,30.2 103.7,30.7 C102.7,31.2 101.5,31.4 100.4,31.4 L99.2,31.4 C98,31.4 96.9,31.2 95.9,30.7 C94.9,30.2 94,29.6 93.2,28.8 C92.4,28 91.8,27.1 91.3,26.1 C90.8,25.1 90.6,24 90.6,22.8 L96.4,22.8 L96.4,22.9 C96.4,23.7 96.7,24.4 97.2,25 C97.7,25.6 98.4,26 99.1,26 L100.5,26 C101.2,26 101.8,25.7 102.3,25.3 C102.8,24.9 103.1,24.3 103.1,23.6 L103.1,23.5 L103.3,23.5 Z" id="Shape"></path>
            <polygon id="Shape" points="109.7 2.6 129.8 2.6 129.8 8.4 122.6 8.4 122.6 31.4 116.8 31.4 116.8 8.4 109.7 8.4"></polygon>
            <path d="M161.4,31.6 L161.4,2.8 L172.9,2.8 C174.1,2.8 175.2,3 176.2,3.5 C177.3,4 178.2,4.6 179,5.4 C179.8,6.2 180.4,7.1 180.9,8.2 C181.4,9.3 181.6,10.4 181.6,11.5 C181.6,13.2 181.2,14.7 180.3,16 C179.5,17.3 178.4,18.4 177,19.1 L182.2,31.6 L176,31.6 L171.2,20.1 L167.2,20.1 L167.2,31.6 L161.4,31.6 Z M167.1,14.3 L172.9,14.3 C173.7,14.3 174.4,14 174.9,13.5 C175.5,12.9 175.7,12.3 175.7,11.5 C175.7,10.7 175.4,10 174.9,9.5 C174.3,8.9 173.7,8.7 172.9,8.7 L167.1,8.7 L167.1,14.3 Z M176,31.6 L182.2,31.6 L182.2,31.6 L176,31.6 Z" id="Shape"></path>
            <polygon id="Shape" points="185.4 31.6 185.4 3.1 191.2 3.1 191.2 26.7 201.6 26.7 205.6 31.6"></polygon>
            <path d="M234,31.5 L234,3 L244.3,3 C245.5,3 246.6,3.2 247.6,3.7 C248.6,4.2 249.6,4.8 250.3,5.5 C251.1,6.3 251.7,7.2 252.1,8.2 C252.6,9.2 252.8,10.4 252.8,11.5 C252.8,12.4 252.7,13.3 252.4,14.1 C252.1,14.9 251.7,15.7 251.3,16.4 C252.2,17.2 252.9,18.1 253.5,19.3 C254,20.4 254.3,21.6 254.3,22.9 C254.3,24.1 254.1,25.2 253.6,26.2 C253.1,27.2 252.5,28.1 251.8,28.9 C251,29.7 250.1,30.3 249.1,30.7 C248.1,31.2 246.9,31.4 245.8,31.4 L234,31.4 L234,31.5 Z M239.8,14.4 L244.4,14.4 C245.2,14.4 245.9,14.1 246.4,13.6 C247,13 247.2,12.4 247.2,11.6 C247.2,10.8 246.9,10.1 246.4,9.6 C245.8,9 245.2,8.8 244.4,8.8 L239.8,8.8 L239.8,14.4 Z M239.8,20.1 L239.8,25.8 L245.8,25.8 C246.6,25.8 247.3,25.5 247.8,25 C248.4,24.4 248.6,23.8 248.6,23 C248.6,22.2 248.3,21.5 247.8,21 C247.2,20.4 246.6,20.2 245.8,20.2 L245,20.2 L245,20.2 L244.7,20.2 L244.4,20.2 L239.8,20.2 L239.8,20.1 L239.8,20.1 Z" id="Shape"></path>
            <path d="M217.1,3.1 L216.7,3.1 L205,26.7 L208.9,31.6 L211.7,25.9 L222,25.9 L224.8,31.6 L231.2,31.6 L217.1,3.1 Z M214.6,20.2 L216.9,15.6 L219.1,20.2 L214.6,20.2 Z" id="Shape"></path>
            <polygon id="Shape" points="137.4 13 127.7 13 135.2 19.7"></polygon>
            <polygon id="Shape" points="159.5 13 150.8 13 153 19.6"></polygon>
            <polygon id="Shape" points="132.5 33.7 142.1 27.1 136.2 23"></polygon>
            <path d="M136.7,21 L143.9,0 L155.6,34 L136.7,21 Z M146.6,21.9 L143.7,13.5 L141.9,18.7 L146.6,21.9 Z" id="Shape"></path>
        </g>
    </g>
</svg>