<svg width="84" height="30" viewBox="0 0 84 30" fill="none" xmlns="http://www.w3.org/2000/svg">
<path d="M47.4783 8.37243C46.4645 7.84534 45.3383 7.57108 44.1956 7.57301C43.6985 7.56306 43.2013 7.59442 42.7093 7.66677C41.9788 7.76743 41.2686 7.98147 40.6042 8.30118C39.2678 8.95744 38.1974 10.0528 37.5721 11.4039C37.1402 12.3104 36.8871 13.2917 36.8265 14.294C36.8196 14.3972 36.7977 14.4915 36.7833 14.5903V15.2947C36.7977 15.3922 36.8196 15.491 36.8252 15.5897C36.8645 16.2539 36.979 16.9115 37.1665 17.5498C37.5965 19.0594 38.5276 20.3777 39.8066 21.2876C40.8962 22.0556 42.1718 22.5173 43.5006 22.6245C44.2031 22.6922 44.9107 22.6863 45.612 22.607C46.3492 22.5305 47.0762 22.375 47.7802 22.1432C48.399 21.9473 48.9893 21.6707 49.5359 21.3207C49.6922 21.2168 49.8387 21.0988 49.9735 20.9682C50.0687 20.8762 50.1409 20.763 50.1843 20.638C50.2278 20.5129 50.2412 20.3793 50.2235 20.2481C50.2133 20.0958 50.1649 19.9485 50.0829 19.8198C50.0008 19.6911 49.8876 19.5851 49.7538 19.5116C49.62 19.4382 49.4698 19.3995 49.3172 19.3994C49.1645 19.3992 49.0143 19.4374 48.8803 19.5106C48.6799 19.6114 48.4823 19.7173 48.2878 19.8281C47.7372 20.1413 47.1447 20.3743 46.5283 20.52C45.9948 20.645 45.4506 20.719 44.9032 20.7413C44.1942 20.7841 43.4833 20.6995 42.8043 20.4913C42.1647 20.3002 41.5714 19.9789 41.0619 19.5476C40.5524 19.1162 40.1376 18.5842 39.8435 17.9849C39.5533 17.3895 39.3649 16.7498 39.286 16.0923C39.2716 15.9891 39.2635 15.8866 39.2497 15.7735H49.6191C49.8499 15.7746 50.0759 15.7067 50.2678 15.5783C50.4597 15.45 50.6088 15.2672 50.696 15.0534C50.8024 14.8191 50.8547 14.5638 50.8491 14.3065C50.8542 13.5479 50.7425 12.7929 50.5179 12.0683C50.2808 11.2818 49.8901 10.5502 49.3684 9.91582C48.8466 9.28141 48.2042 8.75682 47.4783 8.37243V8.37243ZM48.554 14.0603H39.241C39.2741 13.834 39.2978 13.6227 39.3347 13.4152C39.4289 12.8494 39.6118 12.302 39.8766 11.7933C40.3608 10.852 41.189 10.1337 42.1893 9.78751C43.3093 9.36061 44.5457 9.35151 45.672 9.76189C46.2998 9.9792 46.866 10.3444 47.3229 10.8267C47.7799 11.3089 48.114 11.8941 48.2971 12.5327C48.4426 13.0081 48.5299 13.4994 48.5571 13.9959C48.5575 14.0176 48.5565 14.0393 48.554 14.0609V14.0603Z" fill="#0F0F0F"/>
<path d="M66.5301 20.6725C64.7055 18.5311 62.8795 16.3912 61.0523 14.2528C61.0267 14.2227 61.003 14.1902 60.9692 14.1496C61.0011 14.124 61.0317 14.1021 61.0555 14.0784L66.1339 9.44184C66.2696 9.32492 66.3729 9.17494 66.4336 9.00642C66.4944 8.8379 66.5106 8.65655 66.4808 8.47991C66.4361 8.19821 66.2813 7.94579 66.0505 7.77818C65.8197 7.61057 65.5318 7.54148 65.2501 7.58611L65.2245 7.59048C64.9935 7.64699 64.7832 7.76744 64.6175 7.93801C62.8674 9.57102 61.119 11.2049 59.3722 12.8395L57.3521 14.7265C57.3221 14.754 57.2984 14.7953 57.2434 14.7984V1.22449C57.2437 1.11244 57.2315 1.0007 57.2071 0.891341C57.1458 0.654838 57.013 0.443007 56.8269 0.284731C56.6407 0.126456 56.4103 0.0294404 56.167 0.00691451C55.93 -0.0138595 55.6921 0.0356447 55.483 0.149247C55.2739 0.26285 55.1029 0.435519 54.9913 0.645702C54.9023 0.830164 54.8594 1.03351 54.8663 1.23824V21.4894C54.8651 21.5617 54.8694 21.6341 54.8795 21.7057C54.9384 21.9942 55.1019 22.2507 55.3384 22.4262C55.5748 22.6016 55.8678 22.6835 56.161 22.6562C56.4542 22.629 56.727 22.4944 56.9271 22.2784C57.1272 22.0624 57.2405 21.7801 57.2452 21.4857C57.2352 20.2075 57.2452 18.9287 57.2402 17.6505C57.2383 17.6114 57.2456 17.5725 57.2614 17.5368C57.2773 17.5011 57.3013 17.4696 57.3315 17.4448C57.9215 16.9035 58.5103 16.3585 59.0985 15.816L59.3266 15.6103C59.3541 15.6422 59.3741 15.6616 59.3922 15.6835L62.2599 19.0999L64.7851 22.1113C64.8901 22.2373 65.0083 22.3517 65.1376 22.4526C65.2536 22.5462 65.3891 22.6125 65.5342 22.6467C65.6793 22.6809 65.8302 22.6821 65.9758 22.6501C66.1525 22.6208 66.3195 22.5495 66.4629 22.4421C66.6062 22.3347 66.7217 22.1945 66.7995 22.0331C66.8773 21.8718 66.9152 21.6941 66.91 21.5151C66.9048 21.3361 66.8566 21.1609 66.7695 21.0044C66.7011 20.886 66.6209 20.7748 66.5301 20.6725V20.6725Z" fill="#0F0F0F"/>
<path d="M83.6724 13.0634C83.4216 12.0623 82.9552 11.1281 82.306 10.3259C81.6567 9.52364 80.8402 8.87279 79.9134 8.41875C78.772 7.85063 77.5126 7.56023 76.2376 7.57121C75.8732 7.57148 75.5091 7.59444 75.1475 7.63996C74.2269 7.74889 73.3327 8.01952 72.5061 8.43938C71.1541 9.106 70.0551 10.1938 69.3747 11.5389C68.9104 12.4606 68.6374 13.4667 68.5722 14.4966C68.5019 15.3809 68.5776 16.2708 68.7965 17.1305C69.0362 18.1133 69.4831 19.0335 70.1072 19.8296C70.7313 20.6256 71.5183 21.2792 72.4155 21.7464C73.4263 22.286 74.5438 22.5955 75.6882 22.6527C76.5487 22.7092 77.4129 22.6344 78.2509 22.4308C79.7844 22.0715 81.1621 21.2293 82.1812 20.0283C83.2003 18.8272 83.8069 17.3308 83.9118 15.7592C83.9906 14.8535 83.9096 13.941 83.6724 13.0634ZM81.5629 15.7211C81.5011 16.5594 81.2553 17.3737 80.8429 18.1062C80.4841 18.7602 79.9842 19.326 79.3794 19.7626C78.7746 20.1992 78.0801 20.4955 77.3464 20.6301C76.2487 20.8688 75.1037 20.7535 74.0756 20.3007C73.4218 20.0191 72.8332 19.6055 72.3468 19.0856C71.8604 18.5658 71.4867 17.951 71.2492 17.2799C70.9827 16.5601 70.8519 15.7972 70.8635 15.0298C70.8621 13.864 71.2124 12.7249 71.8686 11.7614C72.2523 11.1883 72.7494 10.6998 73.3293 10.3264C73.9092 9.95289 74.5595 9.70229 75.2401 9.59007C76.4151 9.36092 77.6331 9.5326 78.699 10.0776C79.3086 10.383 79.8505 10.808 80.2923 11.3273C80.7341 11.8466 81.0667 12.4496 81.2704 13.1003C81.5504 13.9437 81.6505 14.8365 81.5642 15.7211H81.5629Z" fill="#0F0F0F"/>
<path d="M2.74297 11.9451C3.35627 11.9257 3.95899 12.1081 4.45856 12.4645C4.95812 12.8209 5.32689 13.3314 5.50822 13.9178C5.88317 9.05498 9.98949 5.45977 14.9857 5.45977C17.4809 5.45683 19.877 6.436 21.6562 8.18566C23.4355 9.93533 24.455 12.315 24.4944 14.8103C24.5007 15.5405 24.7968 16.2383 25.3174 16.7502C25.8381 17.2621 26.5408 17.5461 27.2709 17.5399C28.001 17.5336 28.6986 17.2374 29.2104 16.7166C29.7222 16.1958 30.0062 15.493 29.9999 14.7628V14.7628C29.9865 12.815 29.5871 10.8892 28.825 9.09673C28.0629 7.30423 26.9532 5.6806 25.5599 4.3197C22.7436 1.54037 18.9427 -0.0123929 14.9863 7.45001e-05C7.02051 7.45001e-05 0.484524 5.93792 0.00146484 13.7221C0.229039 13.1862 0.611708 12.7306 1.10026 12.4139C1.58881 12.0972 2.1609 11.934 2.74297 11.9451V11.9451Z" fill="url(#paint0_linear)"/>
<path d="M27.2563 18.058C26.6432 18.0773 26.0407 17.8947 25.5414 17.5383C25.042 17.182 24.6735 16.6715 24.4923 16.0853C24.1174 20.9481 20.011 24.5433 15.0136 24.5433C12.5189 24.546 10.1234 23.5669 8.34448 21.8177C6.56554 20.0685 5.54601 17.6895 5.50613 15.1947C5.48224 14.4763 5.17852 13.7957 4.65982 13.2981C4.14112 12.8006 3.44853 12.5256 2.7299 12.5318C2.01126 12.538 1.32351 12.8249 0.813469 13.3313C0.303427 13.8377 0.0114979 14.5235 0 15.2422C0.0141975 17.1892 0.413997 19.1142 1.1763 20.9058C1.9386 22.6974 3.0483 24.3201 4.44127 25.6803C7.25709 28.46 11.0579 30.0128 15.0142 29.9999C22.9813 29.9999 29.5122 24.0621 29.9991 16.2779C29.7717 16.8145 29.3891 17.2708 28.9003 17.5881C28.4114 17.9053 27.8389 18.069 27.2563 18.058V18.058Z" fill="url(#paint1_linear)"/>
<defs>
<linearGradient id="paint0_linear" x1="0.00146484" y1="21.4163" x2="30" y2="21.4163" gradientUnits="userSpaceOnUse">
<stop stop-color="#7CF3A7" stop-opacity="0.102"/>
<stop offset="0.22" stop-color="#7CF3A7" stop-opacity="0.302"/>
<stop offset="0.53" stop-color="#7CF3A7"/>
<stop offset="0.62" stop-color="#73EAA5"/>
<stop offset="0.76" stop-color="#5CD3A1"/>
<stop offset="0.94" stop-color="#35AD9A"/>
<stop offset="0.99" stop-color="#28A098"/>
</linearGradient>
<linearGradient id="paint1_linear" x1="29.9991" y1="8.95072" x2="0" y2="8.95072" gradientUnits="userSpaceOnUse">
<stop stop-color="white" stop-opacity="0"/>
<stop offset="0.01" stop-color="#FFEEF1" stop-opacity="0.078"/>
<stop offset="0.02" stop-color="#FFE1E6" stop-opacity="0.149"/>
<stop offset="0.04" stop-color="#FFD8DE" stop-opacity="0.2"/>
<stop offset="0.06" stop-color="#FFD2D9" stop-opacity="0.22"/>
<stop offset="0.12" stop-color="#FFD1D8" stop-opacity="0.231"/>
<stop offset="0.23" stop-color="#FFA7B4" stop-opacity="0.412"/>
<stop offset="0.38" stop-color="#FF3353" stop-opacity="0.412"/>
<stop offset="0.53" stop-color="#FF3353" stop-opacity="0.569"/>
<stop offset="0.75" stop-color="#F8932C" stop-opacity="0.898"/>
<stop offset="1" stop-color="#F1FF00"/>
</linearGradient>
</defs>
</svg>