<?xml version="1.0" encoding="UTF-8"?>
<svg width="49px" height="23px" viewBox="0 0 49 23" version="1.1" xmlns="http://www.w3.org/2000/svg" xmlns:xlink="http://www.w3.org/1999/xlink">
    <title>Group 2</title>
    <g id="Page-1" stroke="none" stroke-width="1" fill="none" fill-rule="evenodd">
        <g id="Group-2" transform="translate(0.783300, 0.002289)" fill="#0F0F0F" fill-rule="nonzero">
            <path d="M10.695,8.37014119 C9.6812,7.84305119 8.555,7.5689232 7.4123,7.57072119 C6.9152,7.56077119 6.418,7.59213119 5.926,7.66448119 C5.1955,7.76514119 4.4853,7.97918119 3.8209,8.29889119 C2.4845,8.95515119 1.4141,10.0505112 0.7888,11.4016112 C0.3569,12.3081112 0.1038,13.2894112 0.0432,14.2917112 C0.0363,14.3949112 0.0144,14.4892112 8.8817842e-16,14.5880112 L8.8817842e-16,15.2924112 C0.0144,15.3899112 0.0363,15.4887112 0.0419,15.5874112 C0.0812,16.2516112 0.1957,16.9092112 0.3832,17.5475112 C0.8132,19.0571112 1.7443,20.3754112 3.0233,21.2853112 C4.1129,22.0533112 5.3885,22.5150112 6.7173,22.6222112 C7.4198,22.6899112 8.1274,22.6840112 8.8287,22.6047112 C9.5659,22.5282112 10.2929,22.3727112 10.9969,22.1409112 C11.6157,21.9450112 12.206,21.6684112 12.7526,21.3184112 C12.9089,21.2145112 13.0554,21.0965112 13.1902,20.9659112 C13.2854,20.8739112 13.3576,20.7607112 13.401,20.6357112 C13.4445,20.5106112 13.4579,20.3770112 13.4402,20.2458112 C13.43,20.0935112 13.3816,19.9462112 13.2996,19.8175112 C13.2175,19.6888112 13.1043,19.5828112 12.9705,19.5093112 C12.8367,19.4359112 12.6865,19.3972112 12.5339,19.3971112 C12.3812,19.3969112 12.231,19.4351112 12.097,19.5083112 C11.8966,19.6091112 11.699,19.7150112 11.5045,19.8258112 C10.9539,20.1390112 10.3614,20.3720112 9.745,20.5177112 C9.2115,20.6427112 8.6673,20.7167112 8.1199,20.7390112 C7.4109,20.7818112 6.7,20.6972112 6.021,20.4890112 C5.3814,20.2979112 4.7881,19.9766112 4.2786,19.5453112 C3.7691,19.1139112 3.3543,18.5819112 3.0602,17.9826112 C2.77,17.3872112 2.5816,16.7475112 2.5027,16.0900112 C2.4883,15.9868112 2.4802,15.8843112 2.4664,15.7712112 L12.8358,15.7712112 C13.0666,15.7723112 13.2926,15.7044112 13.4845,15.5760112 C13.6764,15.4477112 13.8255,15.2649112 13.9127,15.0511112 C14.0191,14.8168112 14.0714,14.5615112 14.0658,14.3042112 C14.0709,13.5456112 13.9592,12.7906112 13.7346,12.0660112 C13.4975,11.2795112 13.1068,10.5479112 12.5851,9.91353119 C12.0633,9.27912119 11.4209,8.75453119 10.695,8.37014119 L10.695,8.37014119 Z M11.7707,14.0580112 L2.4577,14.0580112 C2.4908,13.8317112 2.5145,13.6204112 2.5514,13.4129112 C2.6456,12.8471112 2.8285,12.2997112 3.0933,11.7910112 C3.5775,10.8497112 4.4057,10.1314112 5.406,9.78522119 C6.526,9.35832119 7.7624,9.34922119 8.8887,9.75960119 C9.5165,9.97691119 10.0827,10.3421112 10.5396,10.8244112 C10.9966,11.3066112 11.3307,11.8918112 11.5138,12.5304112 C11.6593,13.0058112 11.7466,13.4971112 11.7738854,13.9936112 C11.7742,14.0153112 11.7732,14.0370112 11.7707,14.0586112 L11.7707,14.0580112 Z" id="Shape"></path>
            <path d="M29.7468,20.6702112 C27.9222,18.5288112 26.0962,16.3889112 24.269,14.2505112 C24.2434,14.2204112 24.2197,14.1879112 24.1859,14.1473112 C24.2178,14.1217112 24.2484,14.0998112 24.2722,14.0761112 L29.3506,9.43955119 C29.4863,9.32263119 29.5896,9.17265119 29.6503,9.00413119 C29.7111,8.83561119 29.7273,8.65426119 29.6975,8.47762119 C29.6528,8.19592119 29.498,7.94350119 29.2672,7.77589119 C29.0364,7.60828119 28.7485,7.53919119 28.4668,7.58382119 L28.4412,7.58819119 C28.2102,7.64470119 27.9999,7.76515119 27.8342,7.93572119 C26.0841,9.56873119 24.3357,11.2026112 22.5889,12.8372112 L20.5688,14.7242112 C20.5388,14.7517112 20.5151,14.7930112 20.4601,14.7961112 L20.4601,1.22220119 C20.4604,1.11015119 20.4482,0.998411187 20.4238,0.889052187 C20.3625,0.652549187 20.2297,0.440718187 20.0436,0.282442187 C19.8574,0.124167187 19.627,0.0271515872 19.3837,0.0046256972 C19.1467,-0.0161483128 18.9088,0.0333558872 18.6997,0.146958187 C18.4906,0.260561187 18.3196,0.433230187 18.208,0.643413187 C18.119,0.827875187 18.0761,1.03122119 18.083,1.23595119 L18.083,21.4871112 C18.0818,21.5594112 18.0861,21.6318112 18.0962,21.7034112 C18.1551,21.9919112 18.3186,22.2484112 18.5551,22.4239112 C18.7915,22.5993112 19.0845,22.6812112 19.3777,22.6539112 C19.6709,22.6267112 19.9437,22.4921112 20.1438,22.2761112 C20.3439,22.0601112 20.4572,21.7778112 20.4619,21.4834112 C20.4519,20.2052112 20.4619,18.9264112 20.4569,17.6482112 C20.455,17.6091112 20.4623,17.5702112 20.4781,17.5345112 C20.494,17.4988112 20.518,17.4673112 20.5482,17.4425112 C21.1382,16.9012112 21.727,16.3562112 22.3152,15.8137112 L22.5433,15.6080112 C22.5708,15.6399112 22.5908,15.6593112 22.6089,15.6812112 L25.4766,19.0976112 L28.0018,22.1090112 C28.1068,22.2350112 28.225,22.3494112 28.3543,22.4503112 C28.4703,22.5439112 28.6058,22.6102112 28.7509,22.6444112 C28.896,22.6786112 29.0469,22.6798112 29.1925,22.6478112 C29.3692,22.6185112 29.5362,22.5472112 29.6796,22.4398112 C29.8229,22.3324112 29.9384,22.1922112 30.0162,22.0308112 C30.094,21.8695112 30.1319,21.6918112 30.1267,21.5128112 C30.1215,21.3338112 30.0733,21.1586112 29.9862,21.0021112 C29.9178,20.8837112 29.8376,20.7725112 29.7468,20.6702112 L29.7468,20.6702112 Z" id="Path"></path>
            <path d="M46.8891,13.0611112 C46.6383,12.0600112 46.1719,11.1258112 45.5227,10.3236112 C44.8734,9.52135119 44.0569,8.87050119 43.1301,8.41646119 C41.9887,7.84834119 40.7293,7.55794119 39.4543,7.56892119 C39.0899,7.56919119 38.7258,7.59215119 38.3642,7.63767119 C37.4436,7.74660119 36.5494,8.01723119 35.7228,8.43709119 C34.3708,9.10371119 33.2718,10.1915112 32.5914,11.5366112 C32.1271,12.4583112 31.8541,13.4644112 31.7889,14.4943112 C31.7186,15.3786112 31.7943,16.2685112 32.0132,17.1282112 C32.2529,18.1110112 32.6998,19.0312112 33.3239,19.8273112 C33.948,20.6233112 34.735,21.2769112 35.6322,21.7441112 C36.643,22.2837112 37.7605,22.5932112 38.9049,22.6504112 C39.7654,22.7069112 40.6296,22.6321112 41.4676,22.4285112 C43.0011,22.0692112 44.3788,21.2270112 45.3979,20.0260112 C46.417,18.8249112 47.0236,17.3285112 47.1285,15.7569112 C47.2073,14.8512112 47.1263,13.9387112 46.8891,13.0611112 Z M44.7796,15.7188112 C44.7178,16.5571112 44.472,17.3714112 44.0596,18.1039112 C43.7008,18.7579112 43.2009,19.3237112 42.5961,19.7603112 C41.9913,20.1969112 41.2968,20.4932112 40.5631,20.6278112 C39.4654,20.8665112 38.3204,20.7512112 37.2923,20.2984112 C36.6385,20.0168112 36.0499,19.6032112 35.5635,19.0833112 C35.0771,18.5635112 34.7034,17.9487112 34.4659,17.2776112 C34.1994,16.5578112 34.0686,15.7949112 34.0802,15.0275112 C34.0788,13.8617112 34.4291,12.7226112 35.0853,11.7591112 C35.469,11.1860112 35.9661,10.6975112 36.546,10.3241112 C37.1259,9.95060119 37.7762,9.70000119 38.4568,9.58778119 C39.6318,9.35863119 40.8498,9.53031119 41.9157,10.0753112 C42.5253,10.3807112 43.0672,10.8057112 43.509,11.3250112 C43.9508,11.8443112 44.2834,12.4473112 44.4871,13.0980112 C44.7671,13.9414112 44.8672,14.8342112 44.7809,15.7188112 L44.7796,15.7188112 Z" id="Shape"></path>
        </g>
    </g>
</svg>